<mxfile host="Electron" modified="2024-05-21T04:02:52.617Z" agent="Mozilla/5.0 (Windows NT 10.0; Win64; x64) AppleWebKit/537.36 (KHTML, like Gecko) draw.io/24.4.0 Chrome/120.0.6099.109 Electron/28.1.0 Safari/537.36" etag="6i-wbFU9BIqnXSPQbZYD" version="24.4.0" type="device">
  <diagram name="Страница — 1" id="VxInngRuNQsA2XfIiQL0">
    <mxGraphModel dx="1062" dy="619" grid="1" gridSize="10" guides="1" tooltips="1" connect="1" arrows="1" fold="1" page="1" pageScale="1" pageWidth="3300" pageHeight="4681" math="0" shadow="0">
      <root>
        <mxCell id="0" />
        <mxCell id="1" parent="0" />
        <mxCell id="63VN-XcSVFZszBxkWOSX-1" value="Пользователи" style="shape=table;startSize=30;container=1;collapsible=1;childLayout=tableLayout;fixedRows=1;rowLines=0;fontStyle=1;align=center;resizeLast=1;html=1;" vertex="1" parent="1">
          <mxGeometry x="1320" y="1810" width="180" height="300" as="geometry" />
        </mxCell>
        <mxCell id="63VN-XcSVFZszBxkWOSX-2" value="" style="shape=tableRow;horizontal=0;startSize=0;swimlaneHead=0;swimlaneBody=0;fillColor=none;collapsible=0;dropTarget=0;points=[[0,0.5],[1,0.5]];portConstraint=eastwest;top=0;left=0;right=0;bottom=1;" vertex="1" parent="63VN-XcSVFZszBxkWOSX-1">
          <mxGeometry y="30" width="180" height="30" as="geometry" />
        </mxCell>
        <mxCell id="63VN-XcSVFZszBxkWOSX-3" value="PK" style="shape=partialRectangle;connectable=0;fillColor=none;top=0;left=0;bottom=0;right=0;fontStyle=1;overflow=hidden;whiteSpace=wrap;html=1;" vertex="1" parent="63VN-XcSVFZszBxkWOSX-2">
          <mxGeometry width="30" height="30" as="geometry">
            <mxRectangle width="30" height="30" as="alternateBounds" />
          </mxGeometry>
        </mxCell>
        <mxCell id="63VN-XcSVFZszBxkWOSX-4" value="Код" style="shape=partialRectangle;connectable=0;fillColor=none;top=0;left=0;bottom=0;right=0;align=left;spacingLeft=6;fontStyle=5;overflow=hidden;whiteSpace=wrap;html=1;" vertex="1" parent="63VN-XcSVFZszBxkWOSX-2">
          <mxGeometry x="30" width="150" height="30" as="geometry">
            <mxRectangle width="150" height="30" as="alternateBounds" />
          </mxGeometry>
        </mxCell>
        <mxCell id="63VN-XcSVFZszBxkWOSX-100" value="" style="shape=tableRow;horizontal=0;startSize=0;swimlaneHead=0;swimlaneBody=0;fillColor=none;collapsible=0;dropTarget=0;points=[[0,0.5],[1,0.5]];portConstraint=eastwest;top=0;left=0;right=0;bottom=0;" vertex="1" parent="63VN-XcSVFZszBxkWOSX-1">
          <mxGeometry y="60" width="180" height="30" as="geometry" />
        </mxCell>
        <mxCell id="63VN-XcSVFZszBxkWOSX-101" value="" style="shape=partialRectangle;connectable=0;fillColor=none;top=0;left=0;bottom=0;right=0;editable=1;overflow=hidden;" vertex="1" parent="63VN-XcSVFZszBxkWOSX-100">
          <mxGeometry width="30" height="30" as="geometry">
            <mxRectangle width="30" height="30" as="alternateBounds" />
          </mxGeometry>
        </mxCell>
        <mxCell id="63VN-XcSVFZszBxkWOSX-102" value="Наименование (ФИО)" style="shape=partialRectangle;connectable=0;fillColor=none;top=0;left=0;bottom=0;right=0;align=left;spacingLeft=6;overflow=hidden;" vertex="1" parent="63VN-XcSVFZszBxkWOSX-100">
          <mxGeometry x="30" width="150" height="30" as="geometry">
            <mxRectangle width="150" height="30" as="alternateBounds" />
          </mxGeometry>
        </mxCell>
        <mxCell id="63VN-XcSVFZszBxkWOSX-5" value="" style="shape=tableRow;horizontal=0;startSize=0;swimlaneHead=0;swimlaneBody=0;fillColor=none;collapsible=0;dropTarget=0;points=[[0,0.5],[1,0.5]];portConstraint=eastwest;top=0;left=0;right=0;bottom=0;" vertex="1" parent="63VN-XcSVFZszBxkWOSX-1">
          <mxGeometry y="90" width="180" height="30" as="geometry" />
        </mxCell>
        <mxCell id="63VN-XcSVFZszBxkWOSX-6" value="" style="shape=partialRectangle;connectable=0;fillColor=none;top=0;left=0;bottom=0;right=0;editable=1;overflow=hidden;whiteSpace=wrap;html=1;" vertex="1" parent="63VN-XcSVFZszBxkWOSX-5">
          <mxGeometry width="30" height="30" as="geometry">
            <mxRectangle width="30" height="30" as="alternateBounds" />
          </mxGeometry>
        </mxCell>
        <mxCell id="63VN-XcSVFZszBxkWOSX-7" value="Фамилия" style="shape=partialRectangle;connectable=0;fillColor=none;top=0;left=0;bottom=0;right=0;align=left;spacingLeft=6;overflow=hidden;whiteSpace=wrap;html=1;" vertex="1" parent="63VN-XcSVFZszBxkWOSX-5">
          <mxGeometry x="30" width="150" height="30" as="geometry">
            <mxRectangle width="150" height="30" as="alternateBounds" />
          </mxGeometry>
        </mxCell>
        <mxCell id="63VN-XcSVFZszBxkWOSX-8" value="" style="shape=tableRow;horizontal=0;startSize=0;swimlaneHead=0;swimlaneBody=0;fillColor=none;collapsible=0;dropTarget=0;points=[[0,0.5],[1,0.5]];portConstraint=eastwest;top=0;left=0;right=0;bottom=0;" vertex="1" parent="63VN-XcSVFZszBxkWOSX-1">
          <mxGeometry y="120" width="180" height="30" as="geometry" />
        </mxCell>
        <mxCell id="63VN-XcSVFZszBxkWOSX-9" value="" style="shape=partialRectangle;connectable=0;fillColor=none;top=0;left=0;bottom=0;right=0;editable=1;overflow=hidden;whiteSpace=wrap;html=1;" vertex="1" parent="63VN-XcSVFZszBxkWOSX-8">
          <mxGeometry width="30" height="30" as="geometry">
            <mxRectangle width="30" height="30" as="alternateBounds" />
          </mxGeometry>
        </mxCell>
        <mxCell id="63VN-XcSVFZszBxkWOSX-10" value="Имя" style="shape=partialRectangle;connectable=0;fillColor=none;top=0;left=0;bottom=0;right=0;align=left;spacingLeft=6;overflow=hidden;whiteSpace=wrap;html=1;" vertex="1" parent="63VN-XcSVFZszBxkWOSX-8">
          <mxGeometry x="30" width="150" height="30" as="geometry">
            <mxRectangle width="150" height="30" as="alternateBounds" />
          </mxGeometry>
        </mxCell>
        <mxCell id="63VN-XcSVFZszBxkWOSX-11" value="" style="shape=tableRow;horizontal=0;startSize=0;swimlaneHead=0;swimlaneBody=0;fillColor=none;collapsible=0;dropTarget=0;points=[[0,0.5],[1,0.5]];portConstraint=eastwest;top=0;left=0;right=0;bottom=0;" vertex="1" parent="63VN-XcSVFZszBxkWOSX-1">
          <mxGeometry y="150" width="180" height="30" as="geometry" />
        </mxCell>
        <mxCell id="63VN-XcSVFZszBxkWOSX-12" value="" style="shape=partialRectangle;connectable=0;fillColor=none;top=0;left=0;bottom=0;right=0;editable=1;overflow=hidden;whiteSpace=wrap;html=1;" vertex="1" parent="63VN-XcSVFZszBxkWOSX-11">
          <mxGeometry width="30" height="30" as="geometry">
            <mxRectangle width="30" height="30" as="alternateBounds" />
          </mxGeometry>
        </mxCell>
        <mxCell id="63VN-XcSVFZszBxkWOSX-13" value="Отчество" style="shape=partialRectangle;connectable=0;fillColor=none;top=0;left=0;bottom=0;right=0;align=left;spacingLeft=6;overflow=hidden;whiteSpace=wrap;html=1;" vertex="1" parent="63VN-XcSVFZszBxkWOSX-11">
          <mxGeometry x="30" width="150" height="30" as="geometry">
            <mxRectangle width="150" height="30" as="alternateBounds" />
          </mxGeometry>
        </mxCell>
        <mxCell id="63VN-XcSVFZszBxkWOSX-14" value="" style="shape=tableRow;horizontal=0;startSize=0;swimlaneHead=0;swimlaneBody=0;fillColor=none;collapsible=0;dropTarget=0;points=[[0,0.5],[1,0.5]];portConstraint=eastwest;top=0;left=0;right=0;bottom=0;" vertex="1" parent="63VN-XcSVFZszBxkWOSX-1">
          <mxGeometry y="180" width="180" height="30" as="geometry" />
        </mxCell>
        <mxCell id="63VN-XcSVFZszBxkWOSX-15" value="" style="shape=partialRectangle;connectable=0;fillColor=none;top=0;left=0;bottom=0;right=0;editable=1;overflow=hidden;" vertex="1" parent="63VN-XcSVFZszBxkWOSX-14">
          <mxGeometry width="30" height="30" as="geometry">
            <mxRectangle width="30" height="30" as="alternateBounds" />
          </mxGeometry>
        </mxCell>
        <mxCell id="63VN-XcSVFZszBxkWOSX-16" value="Телефон" style="shape=partialRectangle;connectable=0;fillColor=none;top=0;left=0;bottom=0;right=0;align=left;spacingLeft=6;overflow=hidden;" vertex="1" parent="63VN-XcSVFZszBxkWOSX-14">
          <mxGeometry x="30" width="150" height="30" as="geometry">
            <mxRectangle width="150" height="30" as="alternateBounds" />
          </mxGeometry>
        </mxCell>
        <mxCell id="63VN-XcSVFZszBxkWOSX-17" value="" style="shape=tableRow;horizontal=0;startSize=0;swimlaneHead=0;swimlaneBody=0;fillColor=none;collapsible=0;dropTarget=0;points=[[0,0.5],[1,0.5]];portConstraint=eastwest;top=0;left=0;right=0;bottom=0;" vertex="1" parent="63VN-XcSVFZszBxkWOSX-1">
          <mxGeometry y="210" width="180" height="30" as="geometry" />
        </mxCell>
        <mxCell id="63VN-XcSVFZszBxkWOSX-18" value="FK" style="shape=partialRectangle;connectable=0;fillColor=none;top=0;left=0;bottom=0;right=0;editable=1;overflow=hidden;" vertex="1" parent="63VN-XcSVFZszBxkWOSX-17">
          <mxGeometry width="30" height="30" as="geometry">
            <mxRectangle width="30" height="30" as="alternateBounds" />
          </mxGeometry>
        </mxCell>
        <mxCell id="63VN-XcSVFZszBxkWOSX-19" value="Роль" style="shape=partialRectangle;connectable=0;fillColor=none;top=0;left=0;bottom=0;right=0;align=left;spacingLeft=6;overflow=hidden;" vertex="1" parent="63VN-XcSVFZszBxkWOSX-17">
          <mxGeometry x="30" width="150" height="30" as="geometry">
            <mxRectangle width="150" height="30" as="alternateBounds" />
          </mxGeometry>
        </mxCell>
        <mxCell id="63VN-XcSVFZszBxkWOSX-20" value="" style="shape=tableRow;horizontal=0;startSize=0;swimlaneHead=0;swimlaneBody=0;fillColor=none;collapsible=0;dropTarget=0;points=[[0,0.5],[1,0.5]];portConstraint=eastwest;top=0;left=0;right=0;bottom=0;" vertex="1" parent="63VN-XcSVFZszBxkWOSX-1">
          <mxGeometry y="240" width="180" height="30" as="geometry" />
        </mxCell>
        <mxCell id="63VN-XcSVFZszBxkWOSX-21" value="" style="shape=partialRectangle;connectable=0;fillColor=none;top=0;left=0;bottom=0;right=0;editable=1;overflow=hidden;" vertex="1" parent="63VN-XcSVFZszBxkWOSX-20">
          <mxGeometry width="30" height="30" as="geometry">
            <mxRectangle width="30" height="30" as="alternateBounds" />
          </mxGeometry>
        </mxCell>
        <mxCell id="63VN-XcSVFZszBxkWOSX-22" value="Логин" style="shape=partialRectangle;connectable=0;fillColor=none;top=0;left=0;bottom=0;right=0;align=left;spacingLeft=6;overflow=hidden;" vertex="1" parent="63VN-XcSVFZszBxkWOSX-20">
          <mxGeometry x="30" width="150" height="30" as="geometry">
            <mxRectangle width="150" height="30" as="alternateBounds" />
          </mxGeometry>
        </mxCell>
        <mxCell id="63VN-XcSVFZszBxkWOSX-23" value="" style="shape=tableRow;horizontal=0;startSize=0;swimlaneHead=0;swimlaneBody=0;fillColor=none;collapsible=0;dropTarget=0;points=[[0,0.5],[1,0.5]];portConstraint=eastwest;top=0;left=0;right=0;bottom=0;" vertex="1" parent="63VN-XcSVFZszBxkWOSX-1">
          <mxGeometry y="270" width="180" height="30" as="geometry" />
        </mxCell>
        <mxCell id="63VN-XcSVFZszBxkWOSX-24" value="" style="shape=partialRectangle;connectable=0;fillColor=none;top=0;left=0;bottom=0;right=0;editable=1;overflow=hidden;" vertex="1" parent="63VN-XcSVFZszBxkWOSX-23">
          <mxGeometry width="30" height="30" as="geometry">
            <mxRectangle width="30" height="30" as="alternateBounds" />
          </mxGeometry>
        </mxCell>
        <mxCell id="63VN-XcSVFZszBxkWOSX-25" value="Пароль" style="shape=partialRectangle;connectable=0;fillColor=none;top=0;left=0;bottom=0;right=0;align=left;spacingLeft=6;overflow=hidden;" vertex="1" parent="63VN-XcSVFZszBxkWOSX-23">
          <mxGeometry x="30" width="150" height="30" as="geometry">
            <mxRectangle width="150" height="30" as="alternateBounds" />
          </mxGeometry>
        </mxCell>
        <mxCell id="63VN-XcSVFZszBxkWOSX-26" value="Роли" style="shape=table;startSize=30;container=1;collapsible=1;childLayout=tableLayout;fixedRows=1;rowLines=0;fontStyle=1;align=center;resizeLast=1;html=1;" vertex="1" parent="1">
          <mxGeometry x="1010" y="1960" width="180" height="90" as="geometry" />
        </mxCell>
        <mxCell id="63VN-XcSVFZszBxkWOSX-27" value="" style="shape=tableRow;horizontal=0;startSize=0;swimlaneHead=0;swimlaneBody=0;fillColor=none;collapsible=0;dropTarget=0;points=[[0,0.5],[1,0.5]];portConstraint=eastwest;top=0;left=0;right=0;bottom=1;" vertex="1" parent="63VN-XcSVFZszBxkWOSX-26">
          <mxGeometry y="30" width="180" height="30" as="geometry" />
        </mxCell>
        <mxCell id="63VN-XcSVFZszBxkWOSX-28" value="PK" style="shape=partialRectangle;connectable=0;fillColor=none;top=0;left=0;bottom=0;right=0;fontStyle=1;overflow=hidden;whiteSpace=wrap;html=1;" vertex="1" parent="63VN-XcSVFZszBxkWOSX-27">
          <mxGeometry width="30" height="30" as="geometry">
            <mxRectangle width="30" height="30" as="alternateBounds" />
          </mxGeometry>
        </mxCell>
        <mxCell id="63VN-XcSVFZszBxkWOSX-29" value="Код" style="shape=partialRectangle;connectable=0;fillColor=none;top=0;left=0;bottom=0;right=0;align=left;spacingLeft=6;fontStyle=5;overflow=hidden;whiteSpace=wrap;html=1;" vertex="1" parent="63VN-XcSVFZszBxkWOSX-27">
          <mxGeometry x="30" width="150" height="30" as="geometry">
            <mxRectangle width="150" height="30" as="alternateBounds" />
          </mxGeometry>
        </mxCell>
        <mxCell id="63VN-XcSVFZszBxkWOSX-30" value="" style="shape=tableRow;horizontal=0;startSize=0;swimlaneHead=0;swimlaneBody=0;fillColor=none;collapsible=0;dropTarget=0;points=[[0,0.5],[1,0.5]];portConstraint=eastwest;top=0;left=0;right=0;bottom=0;" vertex="1" parent="63VN-XcSVFZszBxkWOSX-26">
          <mxGeometry y="60" width="180" height="30" as="geometry" />
        </mxCell>
        <mxCell id="63VN-XcSVFZszBxkWOSX-31" value="" style="shape=partialRectangle;connectable=0;fillColor=none;top=0;left=0;bottom=0;right=0;editable=1;overflow=hidden;whiteSpace=wrap;html=1;" vertex="1" parent="63VN-XcSVFZszBxkWOSX-30">
          <mxGeometry width="30" height="30" as="geometry">
            <mxRectangle width="30" height="30" as="alternateBounds" />
          </mxGeometry>
        </mxCell>
        <mxCell id="63VN-XcSVFZszBxkWOSX-32" value="Наименование" style="shape=partialRectangle;connectable=0;fillColor=none;top=0;left=0;bottom=0;right=0;align=left;spacingLeft=6;overflow=hidden;whiteSpace=wrap;html=1;" vertex="1" parent="63VN-XcSVFZszBxkWOSX-30">
          <mxGeometry x="30" width="150" height="30" as="geometry">
            <mxRectangle width="150" height="30" as="alternateBounds" />
          </mxGeometry>
        </mxCell>
        <mxCell id="63VN-XcSVFZszBxkWOSX-39" value="" style="edgeStyle=orthogonalEdgeStyle;fontSize=12;html=1;endArrow=ERoneToMany;rounded=0;exitX=1;exitY=0.5;exitDx=0;exitDy=0;entryX=0;entryY=0.5;entryDx=0;entryDy=0;startArrow=ERone;startFill=0;" edge="1" parent="1" source="63VN-XcSVFZszBxkWOSX-27" target="63VN-XcSVFZszBxkWOSX-17">
          <mxGeometry width="100" height="100" relative="1" as="geometry">
            <mxPoint x="990" y="2060" as="sourcePoint" />
            <mxPoint x="1090" y="1960" as="targetPoint" />
          </mxGeometry>
        </mxCell>
        <mxCell id="63VN-XcSVFZszBxkWOSX-40" value="ЗаявкиНаРемонт" style="shape=table;startSize=30;container=1;collapsible=1;childLayout=tableLayout;fixedRows=1;rowLines=0;fontStyle=1;align=center;resizeLast=1;html=1;" vertex="1" parent="1">
          <mxGeometry x="1840" y="1855" width="180" height="300" as="geometry" />
        </mxCell>
        <mxCell id="63VN-XcSVFZszBxkWOSX-41" value="" style="shape=tableRow;horizontal=0;startSize=0;swimlaneHead=0;swimlaneBody=0;fillColor=none;collapsible=0;dropTarget=0;points=[[0,0.5],[1,0.5]];portConstraint=eastwest;top=0;left=0;right=0;bottom=1;" vertex="1" parent="63VN-XcSVFZszBxkWOSX-40">
          <mxGeometry y="30" width="180" height="30" as="geometry" />
        </mxCell>
        <mxCell id="63VN-XcSVFZszBxkWOSX-42" value="PK" style="shape=partialRectangle;connectable=0;fillColor=none;top=0;left=0;bottom=0;right=0;fontStyle=1;overflow=hidden;whiteSpace=wrap;html=1;" vertex="1" parent="63VN-XcSVFZszBxkWOSX-41">
          <mxGeometry width="30" height="30" as="geometry">
            <mxRectangle width="30" height="30" as="alternateBounds" />
          </mxGeometry>
        </mxCell>
        <mxCell id="63VN-XcSVFZszBxkWOSX-43" value="Номер" style="shape=partialRectangle;connectable=0;fillColor=none;top=0;left=0;bottom=0;right=0;align=left;spacingLeft=6;fontStyle=5;overflow=hidden;whiteSpace=wrap;html=1;" vertex="1" parent="63VN-XcSVFZszBxkWOSX-41">
          <mxGeometry x="30" width="150" height="30" as="geometry">
            <mxRectangle width="150" height="30" as="alternateBounds" />
          </mxGeometry>
        </mxCell>
        <mxCell id="63VN-XcSVFZszBxkWOSX-44" value="" style="shape=tableRow;horizontal=0;startSize=0;swimlaneHead=0;swimlaneBody=0;fillColor=none;collapsible=0;dropTarget=0;points=[[0,0.5],[1,0.5]];portConstraint=eastwest;top=0;left=0;right=0;bottom=0;" vertex="1" parent="63VN-XcSVFZszBxkWOSX-40">
          <mxGeometry y="60" width="180" height="30" as="geometry" />
        </mxCell>
        <mxCell id="63VN-XcSVFZszBxkWOSX-45" value="" style="shape=partialRectangle;connectable=0;fillColor=none;top=0;left=0;bottom=0;right=0;editable=1;overflow=hidden;whiteSpace=wrap;html=1;" vertex="1" parent="63VN-XcSVFZszBxkWOSX-44">
          <mxGeometry width="30" height="30" as="geometry">
            <mxRectangle width="30" height="30" as="alternateBounds" />
          </mxGeometry>
        </mxCell>
        <mxCell id="63VN-XcSVFZszBxkWOSX-46" value="Дата" style="shape=partialRectangle;connectable=0;fillColor=none;top=0;left=0;bottom=0;right=0;align=left;spacingLeft=6;overflow=hidden;whiteSpace=wrap;html=1;" vertex="1" parent="63VN-XcSVFZszBxkWOSX-44">
          <mxGeometry x="30" width="150" height="30" as="geometry">
            <mxRectangle width="150" height="30" as="alternateBounds" />
          </mxGeometry>
        </mxCell>
        <mxCell id="63VN-XcSVFZszBxkWOSX-47" value="" style="shape=tableRow;horizontal=0;startSize=0;swimlaneHead=0;swimlaneBody=0;fillColor=none;collapsible=0;dropTarget=0;points=[[0,0.5],[1,0.5]];portConstraint=eastwest;top=0;left=0;right=0;bottom=0;" vertex="1" parent="63VN-XcSVFZszBxkWOSX-40">
          <mxGeometry y="90" width="180" height="30" as="geometry" />
        </mxCell>
        <mxCell id="63VN-XcSVFZszBxkWOSX-48" value="FK" style="shape=partialRectangle;connectable=0;fillColor=none;top=0;left=0;bottom=0;right=0;editable=1;overflow=hidden;whiteSpace=wrap;html=1;" vertex="1" parent="63VN-XcSVFZszBxkWOSX-47">
          <mxGeometry width="30" height="30" as="geometry">
            <mxRectangle width="30" height="30" as="alternateBounds" />
          </mxGeometry>
        </mxCell>
        <mxCell id="63VN-XcSVFZszBxkWOSX-49" value="Клиент" style="shape=partialRectangle;connectable=0;fillColor=none;top=0;left=0;bottom=0;right=0;align=left;spacingLeft=6;overflow=hidden;whiteSpace=wrap;html=1;" vertex="1" parent="63VN-XcSVFZszBxkWOSX-47">
          <mxGeometry x="30" width="150" height="30" as="geometry">
            <mxRectangle width="150" height="30" as="alternateBounds" />
          </mxGeometry>
        </mxCell>
        <mxCell id="63VN-XcSVFZszBxkWOSX-50" value="" style="shape=tableRow;horizontal=0;startSize=0;swimlaneHead=0;swimlaneBody=0;fillColor=none;collapsible=0;dropTarget=0;points=[[0,0.5],[1,0.5]];portConstraint=eastwest;top=0;left=0;right=0;bottom=0;" vertex="1" parent="63VN-XcSVFZszBxkWOSX-40">
          <mxGeometry y="120" width="180" height="30" as="geometry" />
        </mxCell>
        <mxCell id="63VN-XcSVFZszBxkWOSX-51" value="FK" style="shape=partialRectangle;connectable=0;fillColor=none;top=0;left=0;bottom=0;right=0;editable=1;overflow=hidden;whiteSpace=wrap;html=1;" vertex="1" parent="63VN-XcSVFZszBxkWOSX-50">
          <mxGeometry width="30" height="30" as="geometry">
            <mxRectangle width="30" height="30" as="alternateBounds" />
          </mxGeometry>
        </mxCell>
        <mxCell id="63VN-XcSVFZszBxkWOSX-52" value="Сотрудник" style="shape=partialRectangle;connectable=0;fillColor=none;top=0;left=0;bottom=0;right=0;align=left;spacingLeft=6;overflow=hidden;whiteSpace=wrap;html=1;" vertex="1" parent="63VN-XcSVFZszBxkWOSX-50">
          <mxGeometry x="30" width="150" height="30" as="geometry">
            <mxRectangle width="150" height="30" as="alternateBounds" />
          </mxGeometry>
        </mxCell>
        <mxCell id="63VN-XcSVFZszBxkWOSX-53" value="" style="shape=tableRow;horizontal=0;startSize=0;swimlaneHead=0;swimlaneBody=0;fillColor=none;collapsible=0;dropTarget=0;points=[[0,0.5],[1,0.5]];portConstraint=eastwest;top=0;left=0;right=0;bottom=0;" vertex="1" parent="63VN-XcSVFZszBxkWOSX-40">
          <mxGeometry y="150" width="180" height="30" as="geometry" />
        </mxCell>
        <mxCell id="63VN-XcSVFZszBxkWOSX-54" value="FK" style="shape=partialRectangle;connectable=0;fillColor=none;top=0;left=0;bottom=0;right=0;editable=1;overflow=hidden;" vertex="1" parent="63VN-XcSVFZszBxkWOSX-53">
          <mxGeometry width="30" height="30" as="geometry">
            <mxRectangle width="30" height="30" as="alternateBounds" />
          </mxGeometry>
        </mxCell>
        <mxCell id="63VN-XcSVFZszBxkWOSX-55" value="СтатусЗаявки" style="shape=partialRectangle;connectable=0;fillColor=none;top=0;left=0;bottom=0;right=0;align=left;spacingLeft=6;overflow=hidden;" vertex="1" parent="63VN-XcSVFZszBxkWOSX-53">
          <mxGeometry x="30" width="150" height="30" as="geometry">
            <mxRectangle width="150" height="30" as="alternateBounds" />
          </mxGeometry>
        </mxCell>
        <mxCell id="63VN-XcSVFZszBxkWOSX-56" value="" style="shape=tableRow;horizontal=0;startSize=0;swimlaneHead=0;swimlaneBody=0;fillColor=none;collapsible=0;dropTarget=0;points=[[0,0.5],[1,0.5]];portConstraint=eastwest;top=0;left=0;right=0;bottom=0;" vertex="1" parent="63VN-XcSVFZszBxkWOSX-40">
          <mxGeometry y="180" width="180" height="30" as="geometry" />
        </mxCell>
        <mxCell id="63VN-XcSVFZszBxkWOSX-57" value="FK" style="shape=partialRectangle;connectable=0;fillColor=none;top=0;left=0;bottom=0;right=0;editable=1;overflow=hidden;" vertex="1" parent="63VN-XcSVFZszBxkWOSX-56">
          <mxGeometry width="30" height="30" as="geometry">
            <mxRectangle width="30" height="30" as="alternateBounds" />
          </mxGeometry>
        </mxCell>
        <mxCell id="63VN-XcSVFZszBxkWOSX-58" value="ТипОборудования" style="shape=partialRectangle;connectable=0;fillColor=none;top=0;left=0;bottom=0;right=0;align=left;spacingLeft=6;overflow=hidden;" vertex="1" parent="63VN-XcSVFZszBxkWOSX-56">
          <mxGeometry x="30" width="150" height="30" as="geometry">
            <mxRectangle width="150" height="30" as="alternateBounds" />
          </mxGeometry>
        </mxCell>
        <mxCell id="63VN-XcSVFZszBxkWOSX-59" value="" style="shape=tableRow;horizontal=0;startSize=0;swimlaneHead=0;swimlaneBody=0;fillColor=none;collapsible=0;dropTarget=0;points=[[0,0.5],[1,0.5]];portConstraint=eastwest;top=0;left=0;right=0;bottom=0;" vertex="1" parent="63VN-XcSVFZszBxkWOSX-40">
          <mxGeometry y="210" width="180" height="30" as="geometry" />
        </mxCell>
        <mxCell id="63VN-XcSVFZszBxkWOSX-60" value="" style="shape=partialRectangle;connectable=0;fillColor=none;top=0;left=0;bottom=0;right=0;editable=1;overflow=hidden;" vertex="1" parent="63VN-XcSVFZszBxkWOSX-59">
          <mxGeometry width="30" height="30" as="geometry">
            <mxRectangle width="30" height="30" as="alternateBounds" />
          </mxGeometry>
        </mxCell>
        <mxCell id="63VN-XcSVFZszBxkWOSX-61" value="МодельОборудования" style="shape=partialRectangle;connectable=0;fillColor=none;top=0;left=0;bottom=0;right=0;align=left;spacingLeft=6;overflow=hidden;" vertex="1" parent="63VN-XcSVFZszBxkWOSX-59">
          <mxGeometry x="30" width="150" height="30" as="geometry">
            <mxRectangle width="150" height="30" as="alternateBounds" />
          </mxGeometry>
        </mxCell>
        <mxCell id="63VN-XcSVFZszBxkWOSX-62" style="shape=tableRow;horizontal=0;startSize=0;swimlaneHead=0;swimlaneBody=0;fillColor=#fff2cc;collapsible=0;dropTarget=0;points=[[0,0.5],[1,0.5]];portConstraint=eastwest;top=0;left=0;right=0;bottom=0;strokeColor=#d6b656;" vertex="1" parent="63VN-XcSVFZszBxkWOSX-40">
          <mxGeometry y="240" width="180" height="30" as="geometry" />
        </mxCell>
        <mxCell id="63VN-XcSVFZszBxkWOSX-63" style="shape=partialRectangle;connectable=0;fillColor=none;top=0;left=0;bottom=0;right=0;editable=1;overflow=hidden;" vertex="1" parent="63VN-XcSVFZszBxkWOSX-62">
          <mxGeometry width="30" height="30" as="geometry">
            <mxRectangle width="30" height="30" as="alternateBounds" />
          </mxGeometry>
        </mxCell>
        <mxCell id="63VN-XcSVFZszBxkWOSX-64" value="Табличная часть" style="shape=partialRectangle;connectable=0;fillColor=none;top=0;left=0;bottom=0;right=0;align=left;spacingLeft=6;overflow=hidden;" vertex="1" parent="63VN-XcSVFZszBxkWOSX-62">
          <mxGeometry x="30" width="150" height="30" as="geometry">
            <mxRectangle width="150" height="30" as="alternateBounds" />
          </mxGeometry>
        </mxCell>
        <mxCell id="63VN-XcSVFZszBxkWOSX-65" style="shape=tableRow;horizontal=0;startSize=0;swimlaneHead=0;swimlaneBody=0;collapsible=0;dropTarget=0;points=[[0,0.5],[1,0.5]];portConstraint=eastwest;top=0;left=0;right=0;bottom=0;fillColor=none;" vertex="1" parent="63VN-XcSVFZszBxkWOSX-40">
          <mxGeometry y="270" width="180" height="30" as="geometry" />
        </mxCell>
        <mxCell id="63VN-XcSVFZszBxkWOSX-66" style="shape=partialRectangle;connectable=0;fillColor=none;top=0;left=0;bottom=0;right=0;editable=1;overflow=hidden;" vertex="1" parent="63VN-XcSVFZszBxkWOSX-65">
          <mxGeometry width="30" height="30" as="geometry">
            <mxRectangle width="30" height="30" as="alternateBounds" />
          </mxGeometry>
        </mxCell>
        <mxCell id="63VN-XcSVFZszBxkWOSX-67" value="ОписаниеПроблемы" style="shape=partialRectangle;connectable=0;fillColor=none;top=0;left=0;bottom=0;right=0;align=left;spacingLeft=6;overflow=hidden;" vertex="1" parent="63VN-XcSVFZszBxkWOSX-65">
          <mxGeometry x="30" width="150" height="30" as="geometry">
            <mxRectangle width="150" height="30" as="alternateBounds" />
          </mxGeometry>
        </mxCell>
        <mxCell id="63VN-XcSVFZszBxkWOSX-68" value="" style="edgeStyle=orthogonalEdgeStyle;fontSize=12;html=1;endArrow=ERoneToMany;rounded=0;exitX=1;exitY=0.5;exitDx=0;exitDy=0;entryX=0;entryY=0.5;entryDx=0;entryDy=0;startArrow=ERone;startFill=0;" edge="1" parent="1" source="63VN-XcSVFZszBxkWOSX-2" target="63VN-XcSVFZszBxkWOSX-47">
          <mxGeometry width="100" height="100" relative="1" as="geometry">
            <mxPoint x="1550" y="1910" as="sourcePoint" />
            <mxPoint x="1680" y="1910" as="targetPoint" />
          </mxGeometry>
        </mxCell>
        <mxCell id="63VN-XcSVFZszBxkWOSX-71" value="" style="edgeStyle=orthogonalEdgeStyle;fontSize=12;html=1;endArrow=ERoneToMany;rounded=0;exitX=1;exitY=0.5;exitDx=0;exitDy=0;entryX=0;entryY=0.5;entryDx=0;entryDy=0;startArrow=ERone;startFill=0;" edge="1" parent="1" source="63VN-XcSVFZszBxkWOSX-2" target="63VN-XcSVFZszBxkWOSX-50">
          <mxGeometry width="100" height="100" relative="1" as="geometry">
            <mxPoint x="1510" y="2030" as="sourcePoint" />
            <mxPoint x="1840" y="2120" as="targetPoint" />
          </mxGeometry>
        </mxCell>
        <mxCell id="63VN-XcSVFZszBxkWOSX-72" value="Тип оборудования" style="shape=table;startSize=30;container=1;collapsible=1;childLayout=tableLayout;fixedRows=1;rowLines=0;fontStyle=1;align=center;resizeLast=1;html=1;" vertex="1" parent="1">
          <mxGeometry x="2090" y="1920" width="180" height="90" as="geometry" />
        </mxCell>
        <mxCell id="63VN-XcSVFZszBxkWOSX-73" value="" style="shape=tableRow;horizontal=0;startSize=0;swimlaneHead=0;swimlaneBody=0;fillColor=none;collapsible=0;dropTarget=0;points=[[0,0.5],[1,0.5]];portConstraint=eastwest;top=0;left=0;right=0;bottom=1;" vertex="1" parent="63VN-XcSVFZszBxkWOSX-72">
          <mxGeometry y="30" width="180" height="30" as="geometry" />
        </mxCell>
        <mxCell id="63VN-XcSVFZszBxkWOSX-74" value="PK" style="shape=partialRectangle;connectable=0;fillColor=none;top=0;left=0;bottom=0;right=0;fontStyle=1;overflow=hidden;whiteSpace=wrap;html=1;" vertex="1" parent="63VN-XcSVFZszBxkWOSX-73">
          <mxGeometry width="30" height="30" as="geometry">
            <mxRectangle width="30" height="30" as="alternateBounds" />
          </mxGeometry>
        </mxCell>
        <mxCell id="63VN-XcSVFZszBxkWOSX-75" value="Код" style="shape=partialRectangle;connectable=0;fillColor=none;top=0;left=0;bottom=0;right=0;align=left;spacingLeft=6;fontStyle=5;overflow=hidden;whiteSpace=wrap;html=1;" vertex="1" parent="63VN-XcSVFZszBxkWOSX-73">
          <mxGeometry x="30" width="150" height="30" as="geometry">
            <mxRectangle width="150" height="30" as="alternateBounds" />
          </mxGeometry>
        </mxCell>
        <mxCell id="63VN-XcSVFZszBxkWOSX-76" value="" style="shape=tableRow;horizontal=0;startSize=0;swimlaneHead=0;swimlaneBody=0;fillColor=none;collapsible=0;dropTarget=0;points=[[0,0.5],[1,0.5]];portConstraint=eastwest;top=0;left=0;right=0;bottom=0;" vertex="1" parent="63VN-XcSVFZszBxkWOSX-72">
          <mxGeometry y="60" width="180" height="30" as="geometry" />
        </mxCell>
        <mxCell id="63VN-XcSVFZszBxkWOSX-77" value="" style="shape=partialRectangle;connectable=0;fillColor=none;top=0;left=0;bottom=0;right=0;editable=1;overflow=hidden;whiteSpace=wrap;html=1;" vertex="1" parent="63VN-XcSVFZszBxkWOSX-76">
          <mxGeometry width="30" height="30" as="geometry">
            <mxRectangle width="30" height="30" as="alternateBounds" />
          </mxGeometry>
        </mxCell>
        <mxCell id="63VN-XcSVFZszBxkWOSX-78" value="Наименование" style="shape=partialRectangle;connectable=0;fillColor=none;top=0;left=0;bottom=0;right=0;align=left;spacingLeft=6;overflow=hidden;whiteSpace=wrap;html=1;" vertex="1" parent="63VN-XcSVFZszBxkWOSX-76">
          <mxGeometry x="30" width="150" height="30" as="geometry">
            <mxRectangle width="150" height="30" as="alternateBounds" />
          </mxGeometry>
        </mxCell>
        <mxCell id="63VN-XcSVFZszBxkWOSX-85" value="" style="edgeStyle=orthogonalEdgeStyle;fontSize=12;html=1;endArrow=ERoneToMany;rounded=0;exitX=0;exitY=0.5;exitDx=0;exitDy=0;entryX=1;entryY=0.5;entryDx=0;entryDy=0;startArrow=ERone;startFill=0;" edge="1" parent="1" source="63VN-XcSVFZszBxkWOSX-73" target="63VN-XcSVFZszBxkWOSX-56">
          <mxGeometry width="100" height="100" relative="1" as="geometry">
            <mxPoint x="1840" y="2200" as="sourcePoint" />
            <mxPoint x="2150" y="2250" as="targetPoint" />
          </mxGeometry>
        </mxCell>
        <mxCell id="63VN-XcSVFZszBxkWOSX-86" value="СтатусЗаявки" style="shape=table;startSize=30;container=1;collapsible=1;childLayout=tableLayout;fixedRows=1;rowLines=0;fontStyle=1;align=center;resizeLast=1;html=1;" vertex="1" parent="1">
          <mxGeometry x="1550" y="2040" width="180" height="90" as="geometry" />
        </mxCell>
        <mxCell id="63VN-XcSVFZszBxkWOSX-87" value="" style="shape=tableRow;horizontal=0;startSize=0;swimlaneHead=0;swimlaneBody=0;fillColor=none;collapsible=0;dropTarget=0;points=[[0,0.5],[1,0.5]];portConstraint=eastwest;top=0;left=0;right=0;bottom=1;" vertex="1" parent="63VN-XcSVFZszBxkWOSX-86">
          <mxGeometry y="30" width="180" height="30" as="geometry" />
        </mxCell>
        <mxCell id="63VN-XcSVFZszBxkWOSX-88" value="PK" style="shape=partialRectangle;connectable=0;fillColor=none;top=0;left=0;bottom=0;right=0;fontStyle=1;overflow=hidden;whiteSpace=wrap;html=1;" vertex="1" parent="63VN-XcSVFZszBxkWOSX-87">
          <mxGeometry width="30" height="30" as="geometry">
            <mxRectangle width="30" height="30" as="alternateBounds" />
          </mxGeometry>
        </mxCell>
        <mxCell id="63VN-XcSVFZszBxkWOSX-89" value="Код" style="shape=partialRectangle;connectable=0;fillColor=none;top=0;left=0;bottom=0;right=0;align=left;spacingLeft=6;fontStyle=5;overflow=hidden;whiteSpace=wrap;html=1;" vertex="1" parent="63VN-XcSVFZszBxkWOSX-87">
          <mxGeometry x="30" width="150" height="30" as="geometry">
            <mxRectangle width="150" height="30" as="alternateBounds" />
          </mxGeometry>
        </mxCell>
        <mxCell id="63VN-XcSVFZszBxkWOSX-90" value="" style="shape=tableRow;horizontal=0;startSize=0;swimlaneHead=0;swimlaneBody=0;fillColor=none;collapsible=0;dropTarget=0;points=[[0,0.5],[1,0.5]];portConstraint=eastwest;top=0;left=0;right=0;bottom=0;" vertex="1" parent="63VN-XcSVFZszBxkWOSX-86">
          <mxGeometry y="60" width="180" height="30" as="geometry" />
        </mxCell>
        <mxCell id="63VN-XcSVFZszBxkWOSX-91" value="" style="shape=partialRectangle;connectable=0;fillColor=none;top=0;left=0;bottom=0;right=0;editable=1;overflow=hidden;whiteSpace=wrap;html=1;" vertex="1" parent="63VN-XcSVFZszBxkWOSX-90">
          <mxGeometry width="30" height="30" as="geometry">
            <mxRectangle width="30" height="30" as="alternateBounds" />
          </mxGeometry>
        </mxCell>
        <mxCell id="63VN-XcSVFZszBxkWOSX-92" value="Наименование" style="shape=partialRectangle;connectable=0;fillColor=none;top=0;left=0;bottom=0;right=0;align=left;spacingLeft=6;overflow=hidden;whiteSpace=wrap;html=1;" vertex="1" parent="63VN-XcSVFZszBxkWOSX-90">
          <mxGeometry x="30" width="150" height="30" as="geometry">
            <mxRectangle width="150" height="30" as="alternateBounds" />
          </mxGeometry>
        </mxCell>
        <mxCell id="63VN-XcSVFZszBxkWOSX-99" value="" style="edgeStyle=orthogonalEdgeStyle;fontSize=12;html=1;endArrow=ERoneToMany;rounded=0;exitX=1;exitY=0.5;exitDx=0;exitDy=0;entryX=0;entryY=0.5;entryDx=0;entryDy=0;startArrow=ERone;startFill=0;" edge="1" parent="1" source="63VN-XcSVFZszBxkWOSX-87" target="63VN-XcSVFZszBxkWOSX-53">
          <mxGeometry width="100" height="100" relative="1" as="geometry">
            <mxPoint x="1880" y="2140" as="sourcePoint" />
            <mxPoint x="1780" y="2140" as="targetPoint" />
          </mxGeometry>
        </mxCell>
        <mxCell id="63VN-XcSVFZszBxkWOSX-103" value="РегистрацияЗаявок" style="shape=table;startSize=30;container=1;collapsible=1;childLayout=tableLayout;fixedRows=1;rowLines=0;fontStyle=1;align=center;resizeLast=1;html=1;" vertex="1" parent="1">
          <mxGeometry x="1640" y="1330" width="260" height="370" as="geometry" />
        </mxCell>
        <mxCell id="63VN-XcSVFZszBxkWOSX-104" value="" style="shape=tableRow;horizontal=0;startSize=0;swimlaneHead=0;swimlaneBody=0;fillColor=none;collapsible=0;dropTarget=0;points=[[0,0.5],[1,0.5]];portConstraint=eastwest;top=0;left=0;right=0;bottom=1;" vertex="1" parent="63VN-XcSVFZszBxkWOSX-103">
          <mxGeometry y="30" width="260" height="30" as="geometry" />
        </mxCell>
        <mxCell id="63VN-XcSVFZszBxkWOSX-105" value="PK" style="shape=partialRectangle;connectable=0;fillColor=none;top=0;left=0;bottom=0;right=0;fontStyle=1;overflow=hidden;whiteSpace=wrap;html=1;" vertex="1" parent="63VN-XcSVFZszBxkWOSX-104">
          <mxGeometry width="30" height="30" as="geometry">
            <mxRectangle width="30" height="30" as="alternateBounds" />
          </mxGeometry>
        </mxCell>
        <mxCell id="63VN-XcSVFZszBxkWOSX-106" value="Номер" style="shape=partialRectangle;connectable=0;fillColor=none;top=0;left=0;bottom=0;right=0;align=left;spacingLeft=6;fontStyle=5;overflow=hidden;whiteSpace=wrap;html=1;" vertex="1" parent="63VN-XcSVFZszBxkWOSX-104">
          <mxGeometry x="30" width="230" height="30" as="geometry">
            <mxRectangle width="230" height="30" as="alternateBounds" />
          </mxGeometry>
        </mxCell>
        <mxCell id="63VN-XcSVFZszBxkWOSX-107" value="" style="shape=tableRow;horizontal=0;startSize=0;swimlaneHead=0;swimlaneBody=0;fillColor=none;collapsible=0;dropTarget=0;points=[[0,0.5],[1,0.5]];portConstraint=eastwest;top=0;left=0;right=0;bottom=0;" vertex="1" parent="63VN-XcSVFZszBxkWOSX-103">
          <mxGeometry y="60" width="260" height="30" as="geometry" />
        </mxCell>
        <mxCell id="63VN-XcSVFZszBxkWOSX-108" value="" style="shape=partialRectangle;connectable=0;fillColor=none;top=0;left=0;bottom=0;right=0;editable=1;overflow=hidden;whiteSpace=wrap;html=1;" vertex="1" parent="63VN-XcSVFZszBxkWOSX-107">
          <mxGeometry width="30" height="30" as="geometry">
            <mxRectangle width="30" height="30" as="alternateBounds" />
          </mxGeometry>
        </mxCell>
        <mxCell id="63VN-XcSVFZszBxkWOSX-109" value="Дата" style="shape=partialRectangle;connectable=0;fillColor=none;top=0;left=0;bottom=0;right=0;align=left;spacingLeft=6;overflow=hidden;whiteSpace=wrap;html=1;" vertex="1" parent="63VN-XcSVFZszBxkWOSX-107">
          <mxGeometry x="30" width="230" height="30" as="geometry">
            <mxRectangle width="230" height="30" as="alternateBounds" />
          </mxGeometry>
        </mxCell>
        <mxCell id="63VN-XcSVFZszBxkWOSX-110" value="" style="shape=tableRow;horizontal=0;startSize=0;swimlaneHead=0;swimlaneBody=0;fillColor=none;collapsible=0;dropTarget=0;points=[[0,0.5],[1,0.5]];portConstraint=eastwest;top=0;left=0;right=0;bottom=0;" vertex="1" parent="63VN-XcSVFZszBxkWOSX-103">
          <mxGeometry y="90" width="260" height="30" as="geometry" />
        </mxCell>
        <mxCell id="63VN-XcSVFZszBxkWOSX-111" value="" style="shape=partialRectangle;connectable=0;fillColor=none;top=0;left=0;bottom=0;right=0;editable=1;overflow=hidden;" vertex="1" parent="63VN-XcSVFZszBxkWOSX-110">
          <mxGeometry width="30" height="30" as="geometry">
            <mxRectangle width="30" height="30" as="alternateBounds" />
          </mxGeometry>
        </mxCell>
        <mxCell id="63VN-XcSVFZszBxkWOSX-112" value="УникальныйИдентификатор" style="shape=partialRectangle;connectable=0;fillColor=none;top=0;left=0;bottom=0;right=0;align=left;spacingLeft=6;overflow=hidden;" vertex="1" parent="63VN-XcSVFZszBxkWOSX-110">
          <mxGeometry x="30" width="230" height="30" as="geometry">
            <mxRectangle width="230" height="30" as="alternateBounds" />
          </mxGeometry>
        </mxCell>
        <mxCell id="63VN-XcSVFZszBxkWOSX-113" value="" style="shape=tableRow;horizontal=0;startSize=0;swimlaneHead=0;swimlaneBody=0;fillColor=none;collapsible=0;dropTarget=0;points=[[0,0.5],[1,0.5]];portConstraint=eastwest;top=0;left=0;right=0;bottom=0;" vertex="1" parent="63VN-XcSVFZszBxkWOSX-103">
          <mxGeometry y="120" width="260" height="30" as="geometry" />
        </mxCell>
        <mxCell id="63VN-XcSVFZszBxkWOSX-114" value="FK" style="shape=partialRectangle;connectable=0;fillColor=none;top=0;left=0;bottom=0;right=0;editable=1;overflow=hidden;whiteSpace=wrap;html=1;" vertex="1" parent="63VN-XcSVFZszBxkWOSX-113">
          <mxGeometry width="30" height="30" as="geometry">
            <mxRectangle width="30" height="30" as="alternateBounds" />
          </mxGeometry>
        </mxCell>
        <mxCell id="63VN-XcSVFZszBxkWOSX-115" value="Клиент" style="shape=partialRectangle;connectable=0;fillColor=none;top=0;left=0;bottom=0;right=0;align=left;spacingLeft=6;overflow=hidden;whiteSpace=wrap;html=1;" vertex="1" parent="63VN-XcSVFZszBxkWOSX-113">
          <mxGeometry x="30" width="230" height="30" as="geometry">
            <mxRectangle width="230" height="30" as="alternateBounds" />
          </mxGeometry>
        </mxCell>
        <mxCell id="63VN-XcSVFZszBxkWOSX-116" value="" style="shape=tableRow;horizontal=0;startSize=0;swimlaneHead=0;swimlaneBody=0;fillColor=none;collapsible=0;dropTarget=0;points=[[0,0.5],[1,0.5]];portConstraint=eastwest;top=0;left=0;right=0;bottom=0;" vertex="1" parent="63VN-XcSVFZszBxkWOSX-103">
          <mxGeometry y="150" width="260" height="40" as="geometry" />
        </mxCell>
        <mxCell id="63VN-XcSVFZszBxkWOSX-117" value="FK" style="shape=partialRectangle;connectable=0;fillColor=none;top=0;left=0;bottom=0;right=0;editable=1;overflow=hidden;whiteSpace=wrap;html=1;" vertex="1" parent="63VN-XcSVFZszBxkWOSX-116">
          <mxGeometry width="30" height="40" as="geometry">
            <mxRectangle width="30" height="40" as="alternateBounds" />
          </mxGeometry>
        </mxCell>
        <mxCell id="63VN-XcSVFZszBxkWOSX-118" value="Сотрудник" style="shape=partialRectangle;connectable=0;fillColor=none;top=0;left=0;bottom=0;right=0;align=left;spacingLeft=6;overflow=hidden;whiteSpace=wrap;html=1;" vertex="1" parent="63VN-XcSVFZszBxkWOSX-116">
          <mxGeometry x="30" width="230" height="40" as="geometry">
            <mxRectangle width="230" height="40" as="alternateBounds" />
          </mxGeometry>
        </mxCell>
        <mxCell id="63VN-XcSVFZszBxkWOSX-119" value="" style="shape=tableRow;horizontal=0;startSize=0;swimlaneHead=0;swimlaneBody=0;fillColor=none;collapsible=0;dropTarget=0;points=[[0,0.5],[1,0.5]];portConstraint=eastwest;top=0;left=0;right=0;bottom=0;" vertex="1" parent="63VN-XcSVFZszBxkWOSX-103">
          <mxGeometry y="190" width="260" height="30" as="geometry" />
        </mxCell>
        <mxCell id="63VN-XcSVFZszBxkWOSX-120" value="FK" style="shape=partialRectangle;connectable=0;fillColor=none;top=0;left=0;bottom=0;right=0;editable=1;overflow=hidden;" vertex="1" parent="63VN-XcSVFZszBxkWOSX-119">
          <mxGeometry width="30" height="30" as="geometry">
            <mxRectangle width="30" height="30" as="alternateBounds" />
          </mxGeometry>
        </mxCell>
        <mxCell id="63VN-XcSVFZszBxkWOSX-121" value="СтатусЗаявки" style="shape=partialRectangle;connectable=0;fillColor=none;top=0;left=0;bottom=0;right=0;align=left;spacingLeft=6;overflow=hidden;" vertex="1" parent="63VN-XcSVFZszBxkWOSX-119">
          <mxGeometry x="30" width="230" height="30" as="geometry">
            <mxRectangle width="230" height="30" as="alternateBounds" />
          </mxGeometry>
        </mxCell>
        <mxCell id="63VN-XcSVFZszBxkWOSX-122" value="" style="shape=tableRow;horizontal=0;startSize=0;swimlaneHead=0;swimlaneBody=0;fillColor=none;collapsible=0;dropTarget=0;points=[[0,0.5],[1,0.5]];portConstraint=eastwest;top=0;left=0;right=0;bottom=0;" vertex="1" parent="63VN-XcSVFZszBxkWOSX-103">
          <mxGeometry y="220" width="260" height="30" as="geometry" />
        </mxCell>
        <mxCell id="63VN-XcSVFZszBxkWOSX-123" value="FK" style="shape=partialRectangle;connectable=0;fillColor=none;top=0;left=0;bottom=0;right=0;editable=1;overflow=hidden;" vertex="1" parent="63VN-XcSVFZszBxkWOSX-122">
          <mxGeometry width="30" height="30" as="geometry">
            <mxRectangle width="30" height="30" as="alternateBounds" />
          </mxGeometry>
        </mxCell>
        <mxCell id="63VN-XcSVFZszBxkWOSX-124" value="ТипОборудования" style="shape=partialRectangle;connectable=0;fillColor=none;top=0;left=0;bottom=0;right=0;align=left;spacingLeft=6;overflow=hidden;" vertex="1" parent="63VN-XcSVFZszBxkWOSX-122">
          <mxGeometry x="30" width="230" height="30" as="geometry">
            <mxRectangle width="230" height="30" as="alternateBounds" />
          </mxGeometry>
        </mxCell>
        <mxCell id="63VN-XcSVFZszBxkWOSX-125" value="" style="shape=tableRow;horizontal=0;startSize=0;swimlaneHead=0;swimlaneBody=0;fillColor=none;collapsible=0;dropTarget=0;points=[[0,0.5],[1,0.5]];portConstraint=eastwest;top=0;left=0;right=0;bottom=0;" vertex="1" parent="63VN-XcSVFZszBxkWOSX-103">
          <mxGeometry y="250" width="260" height="30" as="geometry" />
        </mxCell>
        <mxCell id="63VN-XcSVFZszBxkWOSX-126" value="" style="shape=partialRectangle;connectable=0;fillColor=none;top=0;left=0;bottom=0;right=0;editable=1;overflow=hidden;" vertex="1" parent="63VN-XcSVFZszBxkWOSX-125">
          <mxGeometry width="30" height="30" as="geometry">
            <mxRectangle width="30" height="30" as="alternateBounds" />
          </mxGeometry>
        </mxCell>
        <mxCell id="63VN-XcSVFZszBxkWOSX-127" value="МодельОборудования" style="shape=partialRectangle;connectable=0;fillColor=none;top=0;left=0;bottom=0;right=0;align=left;spacingLeft=6;overflow=hidden;" vertex="1" parent="63VN-XcSVFZszBxkWOSX-125">
          <mxGeometry x="30" width="230" height="30" as="geometry">
            <mxRectangle width="230" height="30" as="alternateBounds" />
          </mxGeometry>
        </mxCell>
        <mxCell id="63VN-XcSVFZszBxkWOSX-128" value="" style="shape=tableRow;horizontal=0;startSize=0;swimlaneHead=0;swimlaneBody=0;fillColor=none;collapsible=0;dropTarget=0;points=[[0,0.5],[1,0.5]];portConstraint=eastwest;top=0;left=0;right=0;bottom=0;" vertex="1" parent="63VN-XcSVFZszBxkWOSX-103">
          <mxGeometry y="280" width="260" height="30" as="geometry" />
        </mxCell>
        <mxCell id="63VN-XcSVFZszBxkWOSX-129" value="FK" style="shape=partialRectangle;connectable=0;fillColor=none;top=0;left=0;bottom=0;right=0;editable=1;overflow=hidden;" vertex="1" parent="63VN-XcSVFZszBxkWOSX-128">
          <mxGeometry width="30" height="30" as="geometry">
            <mxRectangle width="30" height="30" as="alternateBounds" />
          </mxGeometry>
        </mxCell>
        <mxCell id="63VN-XcSVFZszBxkWOSX-130" value="ДокументОснования" style="shape=partialRectangle;connectable=0;fillColor=none;top=0;left=0;bottom=0;right=0;align=left;spacingLeft=6;overflow=hidden;" vertex="1" parent="63VN-XcSVFZszBxkWOSX-128">
          <mxGeometry x="30" width="230" height="30" as="geometry">
            <mxRectangle width="230" height="30" as="alternateBounds" />
          </mxGeometry>
        </mxCell>
        <mxCell id="63VN-XcSVFZszBxkWOSX-131" style="shape=tableRow;horizontal=0;startSize=0;swimlaneHead=0;swimlaneBody=0;fillColor=#fff2cc;collapsible=0;dropTarget=0;points=[[0,0.5],[1,0.5]];portConstraint=eastwest;top=0;left=0;right=0;bottom=0;strokeColor=#d6b656;" vertex="1" parent="63VN-XcSVFZszBxkWOSX-103">
          <mxGeometry y="310" width="260" height="30" as="geometry" />
        </mxCell>
        <mxCell id="63VN-XcSVFZszBxkWOSX-132" style="shape=partialRectangle;connectable=0;fillColor=none;top=0;left=0;bottom=0;right=0;editable=1;overflow=hidden;" vertex="1" parent="63VN-XcSVFZszBxkWOSX-131">
          <mxGeometry width="30" height="30" as="geometry">
            <mxRectangle width="30" height="30" as="alternateBounds" />
          </mxGeometry>
        </mxCell>
        <mxCell id="63VN-XcSVFZszBxkWOSX-133" value="Табличная часть" style="shape=partialRectangle;connectable=0;fillColor=none;top=0;left=0;bottom=0;right=0;align=left;spacingLeft=6;overflow=hidden;" vertex="1" parent="63VN-XcSVFZszBxkWOSX-131">
          <mxGeometry x="30" width="230" height="30" as="geometry">
            <mxRectangle width="230" height="30" as="alternateBounds" />
          </mxGeometry>
        </mxCell>
        <mxCell id="63VN-XcSVFZszBxkWOSX-134" style="shape=tableRow;horizontal=0;startSize=0;swimlaneHead=0;swimlaneBody=0;collapsible=0;dropTarget=0;points=[[0,0.5],[1,0.5]];portConstraint=eastwest;top=0;left=0;right=0;bottom=0;fillColor=none;" vertex="1" parent="63VN-XcSVFZszBxkWOSX-103">
          <mxGeometry y="340" width="260" height="30" as="geometry" />
        </mxCell>
        <mxCell id="63VN-XcSVFZszBxkWOSX-135" style="shape=partialRectangle;connectable=0;fillColor=none;top=0;left=0;bottom=0;right=0;editable=1;overflow=hidden;" vertex="1" parent="63VN-XcSVFZszBxkWOSX-134">
          <mxGeometry width="30" height="30" as="geometry">
            <mxRectangle width="30" height="30" as="alternateBounds" />
          </mxGeometry>
        </mxCell>
        <mxCell id="63VN-XcSVFZszBxkWOSX-136" value="ОписаниеПроблемы" style="shape=partialRectangle;connectable=0;fillColor=none;top=0;left=0;bottom=0;right=0;align=left;spacingLeft=6;overflow=hidden;" vertex="1" parent="63VN-XcSVFZszBxkWOSX-134">
          <mxGeometry x="30" width="230" height="30" as="geometry">
            <mxRectangle width="230" height="30" as="alternateBounds" />
          </mxGeometry>
        </mxCell>
        <mxCell id="63VN-XcSVFZszBxkWOSX-137" value="" style="edgeStyle=orthogonalEdgeStyle;fontSize=12;html=1;endArrow=ERoneToMany;rounded=0;exitX=0;exitY=0.5;exitDx=0;exitDy=0;startArrow=ERone;startFill=0;" edge="1" parent="1" source="63VN-XcSVFZszBxkWOSX-41" target="63VN-XcSVFZszBxkWOSX-128">
          <mxGeometry width="100" height="100" relative="1" as="geometry">
            <mxPoint x="1690" y="1900" as="sourcePoint" />
            <mxPoint x="1770" y="1750" as="targetPoint" />
          </mxGeometry>
        </mxCell>
        <mxCell id="63VN-XcSVFZszBxkWOSX-138" value="ОбработкаЗаявок" style="shape=table;startSize=30;container=1;collapsible=1;childLayout=tableLayout;fixedRows=1;rowLines=0;fontStyle=1;align=center;resizeLast=1;html=1;" vertex="1" parent="1">
          <mxGeometry x="1350" y="640" width="209" height="600" as="geometry" />
        </mxCell>
        <mxCell id="63VN-XcSVFZszBxkWOSX-139" value="" style="shape=tableRow;horizontal=0;startSize=0;swimlaneHead=0;swimlaneBody=0;fillColor=none;collapsible=0;dropTarget=0;points=[[0,0.5],[1,0.5]];portConstraint=eastwest;top=0;left=0;right=0;bottom=1;" vertex="1" parent="63VN-XcSVFZszBxkWOSX-138">
          <mxGeometry y="30" width="209" height="30" as="geometry" />
        </mxCell>
        <mxCell id="63VN-XcSVFZszBxkWOSX-140" value="PK" style="shape=partialRectangle;connectable=0;fillColor=none;top=0;left=0;bottom=0;right=0;fontStyle=1;overflow=hidden;whiteSpace=wrap;html=1;" vertex="1" parent="63VN-XcSVFZszBxkWOSX-139">
          <mxGeometry width="30" height="30" as="geometry">
            <mxRectangle width="30" height="30" as="alternateBounds" />
          </mxGeometry>
        </mxCell>
        <mxCell id="63VN-XcSVFZszBxkWOSX-141" value="Номер" style="shape=partialRectangle;connectable=0;fillColor=none;top=0;left=0;bottom=0;right=0;align=left;spacingLeft=6;fontStyle=5;overflow=hidden;whiteSpace=wrap;html=1;" vertex="1" parent="63VN-XcSVFZszBxkWOSX-139">
          <mxGeometry x="30" width="179" height="30" as="geometry">
            <mxRectangle width="179" height="30" as="alternateBounds" />
          </mxGeometry>
        </mxCell>
        <mxCell id="63VN-XcSVFZszBxkWOSX-142" value="" style="shape=tableRow;horizontal=0;startSize=0;swimlaneHead=0;swimlaneBody=0;fillColor=none;collapsible=0;dropTarget=0;points=[[0,0.5],[1,0.5]];portConstraint=eastwest;top=0;left=0;right=0;bottom=0;" vertex="1" parent="63VN-XcSVFZszBxkWOSX-138">
          <mxGeometry y="60" width="209" height="30" as="geometry" />
        </mxCell>
        <mxCell id="63VN-XcSVFZszBxkWOSX-143" value="" style="shape=partialRectangle;connectable=0;fillColor=none;top=0;left=0;bottom=0;right=0;editable=1;overflow=hidden;whiteSpace=wrap;html=1;" vertex="1" parent="63VN-XcSVFZszBxkWOSX-142">
          <mxGeometry width="30" height="30" as="geometry">
            <mxRectangle width="30" height="30" as="alternateBounds" />
          </mxGeometry>
        </mxCell>
        <mxCell id="63VN-XcSVFZszBxkWOSX-144" value="Дата" style="shape=partialRectangle;connectable=0;fillColor=none;top=0;left=0;bottom=0;right=0;align=left;spacingLeft=6;overflow=hidden;whiteSpace=wrap;html=1;" vertex="1" parent="63VN-XcSVFZszBxkWOSX-142">
          <mxGeometry x="30" width="179" height="30" as="geometry">
            <mxRectangle width="179" height="30" as="alternateBounds" />
          </mxGeometry>
        </mxCell>
        <mxCell id="63VN-XcSVFZszBxkWOSX-145" value="" style="shape=tableRow;horizontal=0;startSize=0;swimlaneHead=0;swimlaneBody=0;fillColor=none;collapsible=0;dropTarget=0;points=[[0,0.5],[1,0.5]];portConstraint=eastwest;top=0;left=0;right=0;bottom=0;" vertex="1" parent="63VN-XcSVFZszBxkWOSX-138">
          <mxGeometry y="90" width="209" height="30" as="geometry" />
        </mxCell>
        <mxCell id="63VN-XcSVFZszBxkWOSX-146" value="" style="shape=partialRectangle;connectable=0;fillColor=none;top=0;left=0;bottom=0;right=0;editable=1;overflow=hidden;" vertex="1" parent="63VN-XcSVFZszBxkWOSX-145">
          <mxGeometry width="30" height="30" as="geometry">
            <mxRectangle width="30" height="30" as="alternateBounds" />
          </mxGeometry>
        </mxCell>
        <mxCell id="63VN-XcSVFZszBxkWOSX-147" value="УникальныйИдентификатор" style="shape=partialRectangle;connectable=0;fillColor=none;top=0;left=0;bottom=0;right=0;align=left;spacingLeft=6;overflow=hidden;" vertex="1" parent="63VN-XcSVFZszBxkWOSX-145">
          <mxGeometry x="30" width="179" height="30" as="geometry">
            <mxRectangle width="179" height="30" as="alternateBounds" />
          </mxGeometry>
        </mxCell>
        <mxCell id="63VN-XcSVFZszBxkWOSX-148" value="" style="shape=tableRow;horizontal=0;startSize=0;swimlaneHead=0;swimlaneBody=0;fillColor=none;collapsible=0;dropTarget=0;points=[[0,0.5],[1,0.5]];portConstraint=eastwest;top=0;left=0;right=0;bottom=0;" vertex="1" parent="63VN-XcSVFZszBxkWOSX-138">
          <mxGeometry y="120" width="209" height="30" as="geometry" />
        </mxCell>
        <mxCell id="63VN-XcSVFZszBxkWOSX-149" value="FK" style="shape=partialRectangle;connectable=0;fillColor=none;top=0;left=0;bottom=0;right=0;editable=1;overflow=hidden;whiteSpace=wrap;html=1;" vertex="1" parent="63VN-XcSVFZszBxkWOSX-148">
          <mxGeometry width="30" height="30" as="geometry">
            <mxRectangle width="30" height="30" as="alternateBounds" />
          </mxGeometry>
        </mxCell>
        <mxCell id="63VN-XcSVFZszBxkWOSX-150" value="Клиент" style="shape=partialRectangle;connectable=0;fillColor=none;top=0;left=0;bottom=0;right=0;align=left;spacingLeft=6;overflow=hidden;whiteSpace=wrap;html=1;" vertex="1" parent="63VN-XcSVFZszBxkWOSX-148">
          <mxGeometry x="30" width="179" height="30" as="geometry">
            <mxRectangle width="179" height="30" as="alternateBounds" />
          </mxGeometry>
        </mxCell>
        <mxCell id="63VN-XcSVFZszBxkWOSX-151" value="" style="shape=tableRow;horizontal=0;startSize=0;swimlaneHead=0;swimlaneBody=0;fillColor=none;collapsible=0;dropTarget=0;points=[[0,0.5],[1,0.5]];portConstraint=eastwest;top=0;left=0;right=0;bottom=0;" vertex="1" parent="63VN-XcSVFZszBxkWOSX-138">
          <mxGeometry y="150" width="209" height="30" as="geometry" />
        </mxCell>
        <mxCell id="63VN-XcSVFZszBxkWOSX-152" value="FK" style="shape=partialRectangle;connectable=0;fillColor=none;top=0;left=0;bottom=0;right=0;editable=1;overflow=hidden;whiteSpace=wrap;html=1;" vertex="1" parent="63VN-XcSVFZszBxkWOSX-151">
          <mxGeometry width="30" height="30" as="geometry">
            <mxRectangle width="30" height="30" as="alternateBounds" />
          </mxGeometry>
        </mxCell>
        <mxCell id="63VN-XcSVFZszBxkWOSX-153" value="Сотрудник" style="shape=partialRectangle;connectable=0;fillColor=none;top=0;left=0;bottom=0;right=0;align=left;spacingLeft=6;overflow=hidden;whiteSpace=wrap;html=1;" vertex="1" parent="63VN-XcSVFZszBxkWOSX-151">
          <mxGeometry x="30" width="179" height="30" as="geometry">
            <mxRectangle width="179" height="30" as="alternateBounds" />
          </mxGeometry>
        </mxCell>
        <mxCell id="63VN-XcSVFZszBxkWOSX-154" value="" style="shape=tableRow;horizontal=0;startSize=0;swimlaneHead=0;swimlaneBody=0;fillColor=none;collapsible=0;dropTarget=0;points=[[0,0.5],[1,0.5]];portConstraint=eastwest;top=0;left=0;right=0;bottom=0;" vertex="1" parent="63VN-XcSVFZszBxkWOSX-138">
          <mxGeometry y="180" width="209" height="30" as="geometry" />
        </mxCell>
        <mxCell id="63VN-XcSVFZszBxkWOSX-155" value="FK" style="shape=partialRectangle;connectable=0;fillColor=none;top=0;left=0;bottom=0;right=0;editable=1;overflow=hidden;" vertex="1" parent="63VN-XcSVFZszBxkWOSX-154">
          <mxGeometry width="30" height="30" as="geometry">
            <mxRectangle width="30" height="30" as="alternateBounds" />
          </mxGeometry>
        </mxCell>
        <mxCell id="63VN-XcSVFZszBxkWOSX-156" value="СтатусЗаявки" style="shape=partialRectangle;connectable=0;fillColor=none;top=0;left=0;bottom=0;right=0;align=left;spacingLeft=6;overflow=hidden;" vertex="1" parent="63VN-XcSVFZszBxkWOSX-154">
          <mxGeometry x="30" width="179" height="30" as="geometry">
            <mxRectangle width="179" height="30" as="alternateBounds" />
          </mxGeometry>
        </mxCell>
        <mxCell id="63VN-XcSVFZszBxkWOSX-497" value="" style="shape=tableRow;horizontal=0;startSize=0;swimlaneHead=0;swimlaneBody=0;fillColor=none;collapsible=0;dropTarget=0;points=[[0,0.5],[1,0.5]];portConstraint=eastwest;top=0;left=0;right=0;bottom=0;" vertex="1" parent="63VN-XcSVFZszBxkWOSX-138">
          <mxGeometry y="210" width="209" height="30" as="geometry" />
        </mxCell>
        <mxCell id="63VN-XcSVFZszBxkWOSX-498" value="FK" style="shape=partialRectangle;connectable=0;fillColor=none;top=0;left=0;bottom=0;right=0;editable=1;overflow=hidden;" vertex="1" parent="63VN-XcSVFZszBxkWOSX-497">
          <mxGeometry width="30" height="30" as="geometry">
            <mxRectangle width="30" height="30" as="alternateBounds" />
          </mxGeometry>
        </mxCell>
        <mxCell id="63VN-XcSVFZszBxkWOSX-499" value="ТипОборудования" style="shape=partialRectangle;connectable=0;fillColor=none;top=0;left=0;bottom=0;right=0;align=left;spacingLeft=6;overflow=hidden;" vertex="1" parent="63VN-XcSVFZszBxkWOSX-497">
          <mxGeometry x="30" width="179" height="30" as="geometry">
            <mxRectangle width="179" height="30" as="alternateBounds" />
          </mxGeometry>
        </mxCell>
        <mxCell id="63VN-XcSVFZszBxkWOSX-157" value="" style="shape=tableRow;horizontal=0;startSize=0;swimlaneHead=0;swimlaneBody=0;fillColor=none;collapsible=0;dropTarget=0;points=[[0,0.5],[1,0.5]];portConstraint=eastwest;top=0;left=0;right=0;bottom=0;" vertex="1" parent="63VN-XcSVFZszBxkWOSX-138">
          <mxGeometry y="240" width="209" height="30" as="geometry" />
        </mxCell>
        <mxCell id="63VN-XcSVFZszBxkWOSX-158" value="" style="shape=partialRectangle;connectable=0;fillColor=none;top=0;left=0;bottom=0;right=0;editable=1;overflow=hidden;" vertex="1" parent="63VN-XcSVFZszBxkWOSX-157">
          <mxGeometry width="30" height="30" as="geometry">
            <mxRectangle width="30" height="30" as="alternateBounds" />
          </mxGeometry>
        </mxCell>
        <mxCell id="63VN-XcSVFZszBxkWOSX-159" value="МодельОборудования" style="shape=partialRectangle;connectable=0;fillColor=none;top=0;left=0;bottom=0;right=0;align=left;spacingLeft=6;overflow=hidden;" vertex="1" parent="63VN-XcSVFZszBxkWOSX-157">
          <mxGeometry x="30" width="179" height="30" as="geometry">
            <mxRectangle width="179" height="30" as="alternateBounds" />
          </mxGeometry>
        </mxCell>
        <mxCell id="63VN-XcSVFZszBxkWOSX-160" value="" style="shape=tableRow;horizontal=0;startSize=0;swimlaneHead=0;swimlaneBody=0;fillColor=none;collapsible=0;dropTarget=0;points=[[0,0.5],[1,0.5]];portConstraint=eastwest;top=0;left=0;right=0;bottom=0;" vertex="1" parent="63VN-XcSVFZszBxkWOSX-138">
          <mxGeometry y="270" width="209" height="30" as="geometry" />
        </mxCell>
        <mxCell id="63VN-XcSVFZszBxkWOSX-161" value="FK" style="shape=partialRectangle;connectable=0;fillColor=none;top=0;left=0;bottom=0;right=0;editable=1;overflow=hidden;" vertex="1" parent="63VN-XcSVFZszBxkWOSX-160">
          <mxGeometry width="30" height="30" as="geometry">
            <mxRectangle width="30" height="30" as="alternateBounds" />
          </mxGeometry>
        </mxCell>
        <mxCell id="63VN-XcSVFZszBxkWOSX-162" value="Приоритет" style="shape=partialRectangle;connectable=0;fillColor=none;top=0;left=0;bottom=0;right=0;align=left;spacingLeft=6;overflow=hidden;" vertex="1" parent="63VN-XcSVFZszBxkWOSX-160">
          <mxGeometry x="30" width="179" height="30" as="geometry">
            <mxRectangle width="179" height="30" as="alternateBounds" />
          </mxGeometry>
        </mxCell>
        <mxCell id="63VN-XcSVFZszBxkWOSX-163" value="" style="shape=tableRow;horizontal=0;startSize=0;swimlaneHead=0;swimlaneBody=0;fillColor=none;collapsible=0;dropTarget=0;points=[[0,0.5],[1,0.5]];portConstraint=eastwest;top=0;left=0;right=0;bottom=0;" vertex="1" parent="63VN-XcSVFZszBxkWOSX-138">
          <mxGeometry y="300" width="209" height="30" as="geometry" />
        </mxCell>
        <mxCell id="63VN-XcSVFZszBxkWOSX-164" value="FK" style="shape=partialRectangle;connectable=0;fillColor=none;top=0;left=0;bottom=0;right=0;editable=1;overflow=hidden;" vertex="1" parent="63VN-XcSVFZszBxkWOSX-163">
          <mxGeometry width="30" height="30" as="geometry">
            <mxRectangle width="30" height="30" as="alternateBounds" />
          </mxGeometry>
        </mxCell>
        <mxCell id="63VN-XcSVFZszBxkWOSX-165" value="ДокументОснования" style="shape=partialRectangle;connectable=0;fillColor=none;top=0;left=0;bottom=0;right=0;align=left;spacingLeft=6;overflow=hidden;" vertex="1" parent="63VN-XcSVFZszBxkWOSX-163">
          <mxGeometry x="30" width="179" height="30" as="geometry">
            <mxRectangle width="179" height="30" as="alternateBounds" />
          </mxGeometry>
        </mxCell>
        <mxCell id="63VN-XcSVFZszBxkWOSX-166" value="" style="shape=tableRow;horizontal=0;startSize=0;swimlaneHead=0;swimlaneBody=0;fillColor=none;collapsible=0;dropTarget=0;points=[[0,0.5],[1,0.5]];portConstraint=eastwest;top=0;left=0;right=0;bottom=0;" vertex="1" parent="63VN-XcSVFZszBxkWOSX-138">
          <mxGeometry y="330" width="209" height="30" as="geometry" />
        </mxCell>
        <mxCell id="63VN-XcSVFZszBxkWOSX-167" value="" style="shape=partialRectangle;connectable=0;fillColor=none;top=0;left=0;bottom=0;right=0;editable=1;overflow=hidden;" vertex="1" parent="63VN-XcSVFZszBxkWOSX-166">
          <mxGeometry width="30" height="30" as="geometry">
            <mxRectangle width="30" height="30" as="alternateBounds" />
          </mxGeometry>
        </mxCell>
        <mxCell id="63VN-XcSVFZszBxkWOSX-168" value="ОбщаяСумма" style="shape=partialRectangle;connectable=0;fillColor=none;top=0;left=0;bottom=0;right=0;align=left;spacingLeft=6;overflow=hidden;" vertex="1" parent="63VN-XcSVFZszBxkWOSX-166">
          <mxGeometry x="30" width="179" height="30" as="geometry">
            <mxRectangle width="179" height="30" as="alternateBounds" />
          </mxGeometry>
        </mxCell>
        <mxCell id="63VN-XcSVFZszBxkWOSX-169" value="" style="shape=tableRow;horizontal=0;startSize=0;swimlaneHead=0;swimlaneBody=0;fillColor=none;collapsible=0;dropTarget=0;points=[[0,0.5],[1,0.5]];portConstraint=eastwest;top=0;left=0;right=0;bottom=0;" vertex="1" parent="63VN-XcSVFZszBxkWOSX-138">
          <mxGeometry y="360" width="209" height="30" as="geometry" />
        </mxCell>
        <mxCell id="63VN-XcSVFZszBxkWOSX-170" value="" style="shape=partialRectangle;connectable=0;fillColor=none;top=0;left=0;bottom=0;right=0;editable=1;overflow=hidden;" vertex="1" parent="63VN-XcSVFZszBxkWOSX-169">
          <mxGeometry width="30" height="30" as="geometry">
            <mxRectangle width="30" height="30" as="alternateBounds" />
          </mxGeometry>
        </mxCell>
        <mxCell id="63VN-XcSVFZszBxkWOSX-171" value="ДатаНачалаРемонта" style="shape=partialRectangle;connectable=0;fillColor=none;top=0;left=0;bottom=0;right=0;align=left;spacingLeft=6;overflow=hidden;" vertex="1" parent="63VN-XcSVFZszBxkWOSX-169">
          <mxGeometry x="30" width="179" height="30" as="geometry">
            <mxRectangle width="179" height="30" as="alternateBounds" />
          </mxGeometry>
        </mxCell>
        <mxCell id="63VN-XcSVFZszBxkWOSX-172" value="" style="shape=tableRow;horizontal=0;startSize=0;swimlaneHead=0;swimlaneBody=0;fillColor=none;collapsible=0;dropTarget=0;points=[[0,0.5],[1,0.5]];portConstraint=eastwest;top=0;left=0;right=0;bottom=0;" vertex="1" parent="63VN-XcSVFZszBxkWOSX-138">
          <mxGeometry y="390" width="209" height="30" as="geometry" />
        </mxCell>
        <mxCell id="63VN-XcSVFZszBxkWOSX-173" value="" style="shape=partialRectangle;connectable=0;fillColor=none;top=0;left=0;bottom=0;right=0;editable=1;overflow=hidden;" vertex="1" parent="63VN-XcSVFZszBxkWOSX-172">
          <mxGeometry width="30" height="30" as="geometry">
            <mxRectangle width="30" height="30" as="alternateBounds" />
          </mxGeometry>
        </mxCell>
        <mxCell id="63VN-XcSVFZszBxkWOSX-174" value="ДатаОкончанияРемонта" style="shape=partialRectangle;connectable=0;fillColor=none;top=0;left=0;bottom=0;right=0;align=left;spacingLeft=6;overflow=hidden;" vertex="1" parent="63VN-XcSVFZszBxkWOSX-172">
          <mxGeometry x="30" width="179" height="30" as="geometry">
            <mxRectangle width="179" height="30" as="alternateBounds" />
          </mxGeometry>
        </mxCell>
        <mxCell id="63VN-XcSVFZszBxkWOSX-175" style="shape=tableRow;horizontal=0;startSize=0;swimlaneHead=0;swimlaneBody=0;fillColor=#fff2cc;collapsible=0;dropTarget=0;points=[[0,0.5],[1,0.5]];portConstraint=eastwest;top=0;left=0;right=0;bottom=0;strokeColor=#d6b656;" vertex="1" parent="63VN-XcSVFZszBxkWOSX-138">
          <mxGeometry y="420" width="209" height="30" as="geometry" />
        </mxCell>
        <mxCell id="63VN-XcSVFZszBxkWOSX-176" style="shape=partialRectangle;connectable=0;fillColor=none;top=0;left=0;bottom=0;right=0;editable=1;overflow=hidden;" vertex="1" parent="63VN-XcSVFZszBxkWOSX-175">
          <mxGeometry width="30" height="30" as="geometry">
            <mxRectangle width="30" height="30" as="alternateBounds" />
          </mxGeometry>
        </mxCell>
        <mxCell id="63VN-XcSVFZszBxkWOSX-177" value="Табличная часть" style="shape=partialRectangle;connectable=0;fillColor=none;top=0;left=0;bottom=0;right=0;align=left;spacingLeft=6;overflow=hidden;" vertex="1" parent="63VN-XcSVFZszBxkWOSX-175">
          <mxGeometry x="30" width="179" height="30" as="geometry">
            <mxRectangle width="179" height="30" as="alternateBounds" />
          </mxGeometry>
        </mxCell>
        <mxCell id="63VN-XcSVFZszBxkWOSX-178" style="shape=tableRow;horizontal=0;startSize=0;swimlaneHead=0;swimlaneBody=0;collapsible=0;dropTarget=0;points=[[0,0.5],[1,0.5]];portConstraint=eastwest;top=0;left=0;right=0;bottom=0;fillColor=none;" vertex="1" parent="63VN-XcSVFZszBxkWOSX-138">
          <mxGeometry y="450" width="209" height="30" as="geometry" />
        </mxCell>
        <mxCell id="63VN-XcSVFZszBxkWOSX-179" style="shape=partialRectangle;connectable=0;fillColor=none;top=0;left=0;bottom=0;right=0;editable=1;overflow=hidden;" vertex="1" parent="63VN-XcSVFZszBxkWOSX-178">
          <mxGeometry width="30" height="30" as="geometry">
            <mxRectangle width="30" height="30" as="alternateBounds" />
          </mxGeometry>
        </mxCell>
        <mxCell id="63VN-XcSVFZszBxkWOSX-180" value="ОписаниеПроблемы" style="shape=partialRectangle;connectable=0;fillColor=none;top=0;left=0;bottom=0;right=0;align=left;spacingLeft=6;overflow=hidden;" vertex="1" parent="63VN-XcSVFZszBxkWOSX-178">
          <mxGeometry x="30" width="179" height="30" as="geometry">
            <mxRectangle width="179" height="30" as="alternateBounds" />
          </mxGeometry>
        </mxCell>
        <mxCell id="63VN-XcSVFZszBxkWOSX-181" value="" style="shape=tableRow;horizontal=0;startSize=0;swimlaneHead=0;swimlaneBody=0;fillColor=none;collapsible=0;dropTarget=0;points=[[0,0.5],[1,0.5]];portConstraint=eastwest;top=0;left=0;right=0;bottom=0;" vertex="1" parent="63VN-XcSVFZszBxkWOSX-138">
          <mxGeometry y="480" width="209" height="30" as="geometry" />
        </mxCell>
        <mxCell id="63VN-XcSVFZszBxkWOSX-182" value="FK" style="shape=partialRectangle;connectable=0;fillColor=none;top=0;left=0;bottom=0;right=0;editable=1;overflow=hidden;" vertex="1" parent="63VN-XcSVFZszBxkWOSX-181">
          <mxGeometry width="30" height="30" as="geometry">
            <mxRectangle width="30" height="30" as="alternateBounds" />
          </mxGeometry>
        </mxCell>
        <mxCell id="63VN-XcSVFZszBxkWOSX-183" value="Услуга" style="shape=partialRectangle;connectable=0;fillColor=none;top=0;left=0;bottom=0;right=0;align=left;spacingLeft=6;overflow=hidden;" vertex="1" parent="63VN-XcSVFZszBxkWOSX-181">
          <mxGeometry x="30" width="179" height="30" as="geometry">
            <mxRectangle width="179" height="30" as="alternateBounds" />
          </mxGeometry>
        </mxCell>
        <mxCell id="63VN-XcSVFZszBxkWOSX-184" value="" style="shape=tableRow;horizontal=0;startSize=0;swimlaneHead=0;swimlaneBody=0;fillColor=none;collapsible=0;dropTarget=0;points=[[0,0.5],[1,0.5]];portConstraint=eastwest;top=0;left=0;right=0;bottom=0;" vertex="1" parent="63VN-XcSVFZszBxkWOSX-138">
          <mxGeometry y="510" width="209" height="30" as="geometry" />
        </mxCell>
        <mxCell id="63VN-XcSVFZszBxkWOSX-185" value="" style="shape=partialRectangle;connectable=0;fillColor=none;top=0;left=0;bottom=0;right=0;editable=1;overflow=hidden;" vertex="1" parent="63VN-XcSVFZszBxkWOSX-184">
          <mxGeometry width="30" height="30" as="geometry">
            <mxRectangle width="30" height="30" as="alternateBounds" />
          </mxGeometry>
        </mxCell>
        <mxCell id="63VN-XcSVFZszBxkWOSX-186" value="Цена" style="shape=partialRectangle;connectable=0;fillColor=none;top=0;left=0;bottom=0;right=0;align=left;spacingLeft=6;overflow=hidden;" vertex="1" parent="63VN-XcSVFZszBxkWOSX-184">
          <mxGeometry x="30" width="179" height="30" as="geometry">
            <mxRectangle width="179" height="30" as="alternateBounds" />
          </mxGeometry>
        </mxCell>
        <mxCell id="63VN-XcSVFZszBxkWOSX-187" value="" style="shape=tableRow;horizontal=0;startSize=0;swimlaneHead=0;swimlaneBody=0;fillColor=none;collapsible=0;dropTarget=0;points=[[0,0.5],[1,0.5]];portConstraint=eastwest;top=0;left=0;right=0;bottom=0;" vertex="1" parent="63VN-XcSVFZszBxkWOSX-138">
          <mxGeometry y="540" width="209" height="30" as="geometry" />
        </mxCell>
        <mxCell id="63VN-XcSVFZszBxkWOSX-188" value="FK" style="shape=partialRectangle;connectable=0;fillColor=none;top=0;left=0;bottom=0;right=0;editable=1;overflow=hidden;" vertex="1" parent="63VN-XcSVFZszBxkWOSX-187">
          <mxGeometry width="30" height="30" as="geometry">
            <mxRectangle width="30" height="30" as="alternateBounds" />
          </mxGeometry>
        </mxCell>
        <mxCell id="63VN-XcSVFZszBxkWOSX-189" value="Исполнитель" style="shape=partialRectangle;connectable=0;fillColor=none;top=0;left=0;bottom=0;right=0;align=left;spacingLeft=6;overflow=hidden;" vertex="1" parent="63VN-XcSVFZszBxkWOSX-187">
          <mxGeometry x="30" width="179" height="30" as="geometry">
            <mxRectangle width="179" height="30" as="alternateBounds" />
          </mxGeometry>
        </mxCell>
        <mxCell id="63VN-XcSVFZszBxkWOSX-190" value="" style="shape=tableRow;horizontal=0;startSize=0;swimlaneHead=0;swimlaneBody=0;fillColor=none;collapsible=0;dropTarget=0;points=[[0,0.5],[1,0.5]];portConstraint=eastwest;top=0;left=0;right=0;bottom=0;" vertex="1" parent="63VN-XcSVFZszBxkWOSX-138">
          <mxGeometry y="570" width="209" height="30" as="geometry" />
        </mxCell>
        <mxCell id="63VN-XcSVFZszBxkWOSX-191" value="FK" style="shape=partialRectangle;connectable=0;fillColor=none;top=0;left=0;bottom=0;right=0;editable=1;overflow=hidden;" vertex="1" parent="63VN-XcSVFZszBxkWOSX-190">
          <mxGeometry width="30" height="30" as="geometry">
            <mxRectangle width="30" height="30" as="alternateBounds" />
          </mxGeometry>
        </mxCell>
        <mxCell id="63VN-XcSVFZszBxkWOSX-192" value="Приоритет" style="shape=partialRectangle;connectable=0;fillColor=none;top=0;left=0;bottom=0;right=0;align=left;spacingLeft=6;overflow=hidden;" vertex="1" parent="63VN-XcSVFZszBxkWOSX-190">
          <mxGeometry x="30" width="179" height="30" as="geometry">
            <mxRectangle width="179" height="30" as="alternateBounds" />
          </mxGeometry>
        </mxCell>
        <mxCell id="63VN-XcSVFZszBxkWOSX-193" value="" style="edgeStyle=orthogonalEdgeStyle;fontSize=12;html=1;endArrow=ERoneToMany;rounded=0;exitX=0;exitY=0.5;exitDx=0;exitDy=0;entryX=0;entryY=0.5;entryDx=0;entryDy=0;startArrow=ERone;startFill=0;" edge="1" parent="1" source="63VN-XcSVFZszBxkWOSX-2" target="63VN-XcSVFZszBxkWOSX-187">
          <mxGeometry width="100" height="100" relative="1" as="geometry">
            <mxPoint x="1110" y="1810" as="sourcePoint" />
            <mxPoint x="1240" y="1840" as="targetPoint" />
          </mxGeometry>
        </mxCell>
        <mxCell id="63VN-XcSVFZszBxkWOSX-194" value="Приоритет" style="shape=table;startSize=30;container=1;collapsible=1;childLayout=tableLayout;fixedRows=1;rowLines=0;fontStyle=1;align=center;resizeLast=1;html=1;" vertex="1" parent="1">
          <mxGeometry x="1000" y="1710" width="180" height="90" as="geometry" />
        </mxCell>
        <mxCell id="63VN-XcSVFZszBxkWOSX-195" value="" style="shape=tableRow;horizontal=0;startSize=0;swimlaneHead=0;swimlaneBody=0;fillColor=none;collapsible=0;dropTarget=0;points=[[0,0.5],[1,0.5]];portConstraint=eastwest;top=0;left=0;right=0;bottom=1;" vertex="1" parent="63VN-XcSVFZszBxkWOSX-194">
          <mxGeometry y="30" width="180" height="30" as="geometry" />
        </mxCell>
        <mxCell id="63VN-XcSVFZszBxkWOSX-196" value="PK" style="shape=partialRectangle;connectable=0;fillColor=none;top=0;left=0;bottom=0;right=0;fontStyle=1;overflow=hidden;whiteSpace=wrap;html=1;" vertex="1" parent="63VN-XcSVFZszBxkWOSX-195">
          <mxGeometry width="30" height="30" as="geometry">
            <mxRectangle width="30" height="30" as="alternateBounds" />
          </mxGeometry>
        </mxCell>
        <mxCell id="63VN-XcSVFZszBxkWOSX-197" value="Код" style="shape=partialRectangle;connectable=0;fillColor=none;top=0;left=0;bottom=0;right=0;align=left;spacingLeft=6;fontStyle=5;overflow=hidden;whiteSpace=wrap;html=1;" vertex="1" parent="63VN-XcSVFZszBxkWOSX-195">
          <mxGeometry x="30" width="150" height="30" as="geometry">
            <mxRectangle width="150" height="30" as="alternateBounds" />
          </mxGeometry>
        </mxCell>
        <mxCell id="63VN-XcSVFZszBxkWOSX-198" value="" style="shape=tableRow;horizontal=0;startSize=0;swimlaneHead=0;swimlaneBody=0;fillColor=none;collapsible=0;dropTarget=0;points=[[0,0.5],[1,0.5]];portConstraint=eastwest;top=0;left=0;right=0;bottom=0;" vertex="1" parent="63VN-XcSVFZszBxkWOSX-194">
          <mxGeometry y="60" width="180" height="30" as="geometry" />
        </mxCell>
        <mxCell id="63VN-XcSVFZszBxkWOSX-199" value="" style="shape=partialRectangle;connectable=0;fillColor=none;top=0;left=0;bottom=0;right=0;editable=1;overflow=hidden;whiteSpace=wrap;html=1;" vertex="1" parent="63VN-XcSVFZszBxkWOSX-198">
          <mxGeometry width="30" height="30" as="geometry">
            <mxRectangle width="30" height="30" as="alternateBounds" />
          </mxGeometry>
        </mxCell>
        <mxCell id="63VN-XcSVFZszBxkWOSX-200" value="Наименование" style="shape=partialRectangle;connectable=0;fillColor=none;top=0;left=0;bottom=0;right=0;align=left;spacingLeft=6;overflow=hidden;whiteSpace=wrap;html=1;" vertex="1" parent="63VN-XcSVFZszBxkWOSX-198">
          <mxGeometry x="30" width="150" height="30" as="geometry">
            <mxRectangle width="150" height="30" as="alternateBounds" />
          </mxGeometry>
        </mxCell>
        <mxCell id="63VN-XcSVFZszBxkWOSX-207" value="" style="edgeStyle=orthogonalEdgeStyle;fontSize=12;html=1;endArrow=ERoneToMany;rounded=0;startArrow=ERone;startFill=0;entryX=0;entryY=0.5;entryDx=0;entryDy=0;exitX=1;exitY=0.5;exitDx=0;exitDy=0;" edge="1" parent="1" source="63VN-XcSVFZszBxkWOSX-195" target="63VN-XcSVFZszBxkWOSX-190">
          <mxGeometry width="100" height="100" relative="1" as="geometry">
            <mxPoint x="1160" y="1660" as="sourcePoint" />
            <mxPoint x="1260" y="1560" as="targetPoint" />
          </mxGeometry>
        </mxCell>
        <mxCell id="63VN-XcSVFZszBxkWOSX-209" value="" style="edgeStyle=orthogonalEdgeStyle;fontSize=12;html=1;endArrow=ERoneToMany;rounded=0;exitX=0;exitY=0.5;exitDx=0;exitDy=0;startArrow=ERone;startFill=0;entryX=1;entryY=0.5;entryDx=0;entryDy=0;" edge="1" parent="1" source="63VN-XcSVFZszBxkWOSX-104" target="63VN-XcSVFZszBxkWOSX-163">
          <mxGeometry width="100" height="100" relative="1" as="geometry">
            <mxPoint x="1530" y="1675" as="sourcePoint" />
            <mxPoint x="1590" y="1400" as="targetPoint" />
          </mxGeometry>
        </mxCell>
        <mxCell id="63VN-XcSVFZszBxkWOSX-210" value="Услуги" style="shape=table;startSize=30;container=1;collapsible=1;childLayout=tableLayout;fixedRows=1;rowLines=0;fontStyle=1;align=center;resizeLast=1;html=1;" vertex="1" parent="1">
          <mxGeometry x="1930" y="1690" width="180" height="90" as="geometry" />
        </mxCell>
        <mxCell id="63VN-XcSVFZszBxkWOSX-211" value="" style="shape=tableRow;horizontal=0;startSize=0;swimlaneHead=0;swimlaneBody=0;fillColor=none;collapsible=0;dropTarget=0;points=[[0,0.5],[1,0.5]];portConstraint=eastwest;top=0;left=0;right=0;bottom=1;" vertex="1" parent="63VN-XcSVFZszBxkWOSX-210">
          <mxGeometry y="30" width="180" height="30" as="geometry" />
        </mxCell>
        <mxCell id="63VN-XcSVFZszBxkWOSX-212" value="PK" style="shape=partialRectangle;connectable=0;fillColor=none;top=0;left=0;bottom=0;right=0;fontStyle=1;overflow=hidden;whiteSpace=wrap;html=1;" vertex="1" parent="63VN-XcSVFZszBxkWOSX-211">
          <mxGeometry width="30" height="30" as="geometry">
            <mxRectangle width="30" height="30" as="alternateBounds" />
          </mxGeometry>
        </mxCell>
        <mxCell id="63VN-XcSVFZszBxkWOSX-213" value="Код" style="shape=partialRectangle;connectable=0;fillColor=none;top=0;left=0;bottom=0;right=0;align=left;spacingLeft=6;fontStyle=5;overflow=hidden;whiteSpace=wrap;html=1;" vertex="1" parent="63VN-XcSVFZszBxkWOSX-211">
          <mxGeometry x="30" width="150" height="30" as="geometry">
            <mxRectangle width="150" height="30" as="alternateBounds" />
          </mxGeometry>
        </mxCell>
        <mxCell id="63VN-XcSVFZszBxkWOSX-214" value="" style="shape=tableRow;horizontal=0;startSize=0;swimlaneHead=0;swimlaneBody=0;fillColor=none;collapsible=0;dropTarget=0;points=[[0,0.5],[1,0.5]];portConstraint=eastwest;top=0;left=0;right=0;bottom=0;" vertex="1" parent="63VN-XcSVFZszBxkWOSX-210">
          <mxGeometry y="60" width="180" height="30" as="geometry" />
        </mxCell>
        <mxCell id="63VN-XcSVFZszBxkWOSX-215" value="" style="shape=partialRectangle;connectable=0;fillColor=none;top=0;left=0;bottom=0;right=0;editable=1;overflow=hidden;whiteSpace=wrap;html=1;" vertex="1" parent="63VN-XcSVFZszBxkWOSX-214">
          <mxGeometry width="30" height="30" as="geometry">
            <mxRectangle width="30" height="30" as="alternateBounds" />
          </mxGeometry>
        </mxCell>
        <mxCell id="63VN-XcSVFZszBxkWOSX-216" value="Наименование" style="shape=partialRectangle;connectable=0;fillColor=none;top=0;left=0;bottom=0;right=0;align=left;spacingLeft=6;overflow=hidden;whiteSpace=wrap;html=1;" vertex="1" parent="63VN-XcSVFZszBxkWOSX-214">
          <mxGeometry x="30" width="150" height="30" as="geometry">
            <mxRectangle width="150" height="30" as="alternateBounds" />
          </mxGeometry>
        </mxCell>
        <mxCell id="63VN-XcSVFZszBxkWOSX-223" value="РегистрЦенТипоборудования" style="shape=table;startSize=30;container=1;collapsible=1;childLayout=tableLayout;fixedRows=1;rowLines=0;fontStyle=1;align=center;resizeLast=1;html=1;" vertex="1" parent="1">
          <mxGeometry x="2270" y="1420" width="220" height="150" as="geometry" />
        </mxCell>
        <mxCell id="63VN-XcSVFZszBxkWOSX-224" value="" style="shape=tableRow;horizontal=0;startSize=0;swimlaneHead=0;swimlaneBody=0;fillColor=none;collapsible=0;dropTarget=0;points=[[0,0.5],[1,0.5]];portConstraint=eastwest;top=0;left=0;right=0;bottom=1;" vertex="1" parent="63VN-XcSVFZszBxkWOSX-223">
          <mxGeometry y="30" width="220" height="30" as="geometry" />
        </mxCell>
        <mxCell id="63VN-XcSVFZszBxkWOSX-225" value="PK" style="shape=partialRectangle;connectable=0;fillColor=none;top=0;left=0;bottom=0;right=0;fontStyle=1;overflow=hidden;whiteSpace=wrap;html=1;" vertex="1" parent="63VN-XcSVFZszBxkWOSX-224">
          <mxGeometry width="30" height="30" as="geometry">
            <mxRectangle width="30" height="30" as="alternateBounds" />
          </mxGeometry>
        </mxCell>
        <mxCell id="63VN-XcSVFZszBxkWOSX-226" value="Ссылка" style="shape=partialRectangle;connectable=0;fillColor=none;top=0;left=0;bottom=0;right=0;align=left;spacingLeft=6;fontStyle=5;overflow=hidden;whiteSpace=wrap;html=1;" vertex="1" parent="63VN-XcSVFZszBxkWOSX-224">
          <mxGeometry x="30" width="190" height="30" as="geometry">
            <mxRectangle width="190" height="30" as="alternateBounds" />
          </mxGeometry>
        </mxCell>
        <mxCell id="63VN-XcSVFZszBxkWOSX-227" value="" style="shape=tableRow;horizontal=0;startSize=0;swimlaneHead=0;swimlaneBody=0;fillColor=none;collapsible=0;dropTarget=0;points=[[0,0.5],[1,0.5]];portConstraint=eastwest;top=0;left=0;right=0;bottom=0;" vertex="1" parent="63VN-XcSVFZszBxkWOSX-223">
          <mxGeometry y="60" width="220" height="30" as="geometry" />
        </mxCell>
        <mxCell id="63VN-XcSVFZszBxkWOSX-228" value="FK" style="shape=partialRectangle;connectable=0;fillColor=none;top=0;left=0;bottom=0;right=0;editable=1;overflow=hidden;whiteSpace=wrap;html=1;" vertex="1" parent="63VN-XcSVFZszBxkWOSX-227">
          <mxGeometry width="30" height="30" as="geometry">
            <mxRectangle width="30" height="30" as="alternateBounds" />
          </mxGeometry>
        </mxCell>
        <mxCell id="63VN-XcSVFZszBxkWOSX-229" value="ТипОборудования" style="shape=partialRectangle;connectable=0;fillColor=none;top=0;left=0;bottom=0;right=0;align=left;spacingLeft=6;overflow=hidden;whiteSpace=wrap;html=1;" vertex="1" parent="63VN-XcSVFZszBxkWOSX-227">
          <mxGeometry x="30" width="190" height="30" as="geometry">
            <mxRectangle width="190" height="30" as="alternateBounds" />
          </mxGeometry>
        </mxCell>
        <mxCell id="63VN-XcSVFZszBxkWOSX-230" value="" style="shape=tableRow;horizontal=0;startSize=0;swimlaneHead=0;swimlaneBody=0;fillColor=none;collapsible=0;dropTarget=0;points=[[0,0.5],[1,0.5]];portConstraint=eastwest;top=0;left=0;right=0;bottom=0;" vertex="1" parent="63VN-XcSVFZszBxkWOSX-223">
          <mxGeometry y="90" width="220" height="30" as="geometry" />
        </mxCell>
        <mxCell id="63VN-XcSVFZszBxkWOSX-231" value="FK" style="shape=partialRectangle;connectable=0;fillColor=none;top=0;left=0;bottom=0;right=0;editable=1;overflow=hidden;whiteSpace=wrap;html=1;" vertex="1" parent="63VN-XcSVFZszBxkWOSX-230">
          <mxGeometry width="30" height="30" as="geometry">
            <mxRectangle width="30" height="30" as="alternateBounds" />
          </mxGeometry>
        </mxCell>
        <mxCell id="63VN-XcSVFZszBxkWOSX-232" value="Услуга" style="shape=partialRectangle;connectable=0;fillColor=none;top=0;left=0;bottom=0;right=0;align=left;spacingLeft=6;overflow=hidden;whiteSpace=wrap;html=1;" vertex="1" parent="63VN-XcSVFZszBxkWOSX-230">
          <mxGeometry x="30" width="190" height="30" as="geometry">
            <mxRectangle width="190" height="30" as="alternateBounds" />
          </mxGeometry>
        </mxCell>
        <mxCell id="63VN-XcSVFZszBxkWOSX-233" value="" style="shape=tableRow;horizontal=0;startSize=0;swimlaneHead=0;swimlaneBody=0;fillColor=none;collapsible=0;dropTarget=0;points=[[0,0.5],[1,0.5]];portConstraint=eastwest;top=0;left=0;right=0;bottom=0;" vertex="1" parent="63VN-XcSVFZszBxkWOSX-223">
          <mxGeometry y="120" width="220" height="30" as="geometry" />
        </mxCell>
        <mxCell id="63VN-XcSVFZszBxkWOSX-234" value="" style="shape=partialRectangle;connectable=0;fillColor=none;top=0;left=0;bottom=0;right=0;editable=1;overflow=hidden;whiteSpace=wrap;html=1;" vertex="1" parent="63VN-XcSVFZszBxkWOSX-233">
          <mxGeometry width="30" height="30" as="geometry">
            <mxRectangle width="30" height="30" as="alternateBounds" />
          </mxGeometry>
        </mxCell>
        <mxCell id="63VN-XcSVFZszBxkWOSX-235" value="Цена" style="shape=partialRectangle;connectable=0;fillColor=none;top=0;left=0;bottom=0;right=0;align=left;spacingLeft=6;overflow=hidden;whiteSpace=wrap;html=1;" vertex="1" parent="63VN-XcSVFZszBxkWOSX-233">
          <mxGeometry x="30" width="190" height="30" as="geometry">
            <mxRectangle width="190" height="30" as="alternateBounds" />
          </mxGeometry>
        </mxCell>
        <mxCell id="63VN-XcSVFZszBxkWOSX-236" value="УстановлениеЦенНаУслуги" style="shape=table;startSize=30;container=1;collapsible=1;childLayout=tableLayout;fixedRows=1;rowLines=0;fontStyle=1;align=center;resizeLast=1;html=1;" vertex="1" parent="1">
          <mxGeometry x="2310" y="1640" width="180" height="210" as="geometry" />
        </mxCell>
        <mxCell id="63VN-XcSVFZszBxkWOSX-237" value="" style="shape=tableRow;horizontal=0;startSize=0;swimlaneHead=0;swimlaneBody=0;fillColor=none;collapsible=0;dropTarget=0;points=[[0,0.5],[1,0.5]];portConstraint=eastwest;top=0;left=0;right=0;bottom=1;" vertex="1" parent="63VN-XcSVFZszBxkWOSX-236">
          <mxGeometry y="30" width="180" height="30" as="geometry" />
        </mxCell>
        <mxCell id="63VN-XcSVFZszBxkWOSX-238" value="PK" style="shape=partialRectangle;connectable=0;fillColor=none;top=0;left=0;bottom=0;right=0;fontStyle=1;overflow=hidden;whiteSpace=wrap;html=1;" vertex="1" parent="63VN-XcSVFZszBxkWOSX-237">
          <mxGeometry width="30" height="30" as="geometry">
            <mxRectangle width="30" height="30" as="alternateBounds" />
          </mxGeometry>
        </mxCell>
        <mxCell id="63VN-XcSVFZszBxkWOSX-239" value="Номер" style="shape=partialRectangle;connectable=0;fillColor=none;top=0;left=0;bottom=0;right=0;align=left;spacingLeft=6;fontStyle=5;overflow=hidden;whiteSpace=wrap;html=1;" vertex="1" parent="63VN-XcSVFZszBxkWOSX-237">
          <mxGeometry x="30" width="150" height="30" as="geometry">
            <mxRectangle width="150" height="30" as="alternateBounds" />
          </mxGeometry>
        </mxCell>
        <mxCell id="63VN-XcSVFZszBxkWOSX-240" value="" style="shape=tableRow;horizontal=0;startSize=0;swimlaneHead=0;swimlaneBody=0;fillColor=none;collapsible=0;dropTarget=0;points=[[0,0.5],[1,0.5]];portConstraint=eastwest;top=0;left=0;right=0;bottom=0;" vertex="1" parent="63VN-XcSVFZszBxkWOSX-236">
          <mxGeometry y="60" width="180" height="30" as="geometry" />
        </mxCell>
        <mxCell id="63VN-XcSVFZszBxkWOSX-241" value="FK" style="shape=partialRectangle;connectable=0;fillColor=none;top=0;left=0;bottom=0;right=0;editable=1;overflow=hidden;whiteSpace=wrap;html=1;" vertex="1" parent="63VN-XcSVFZszBxkWOSX-240">
          <mxGeometry width="30" height="30" as="geometry">
            <mxRectangle width="30" height="30" as="alternateBounds" />
          </mxGeometry>
        </mxCell>
        <mxCell id="63VN-XcSVFZszBxkWOSX-242" value="Сотрудник" style="shape=partialRectangle;connectable=0;fillColor=none;top=0;left=0;bottom=0;right=0;align=left;spacingLeft=6;overflow=hidden;whiteSpace=wrap;html=1;" vertex="1" parent="63VN-XcSVFZszBxkWOSX-240">
          <mxGeometry x="30" width="150" height="30" as="geometry">
            <mxRectangle width="150" height="30" as="alternateBounds" />
          </mxGeometry>
        </mxCell>
        <mxCell id="63VN-XcSVFZszBxkWOSX-243" value="" style="shape=tableRow;horizontal=0;startSize=0;swimlaneHead=0;swimlaneBody=0;fillColor=#fff2cc;collapsible=0;dropTarget=0;points=[[0,0.5],[1,0.5]];portConstraint=eastwest;top=0;left=0;right=0;bottom=0;strokeColor=#d6b656;" vertex="1" parent="63VN-XcSVFZszBxkWOSX-236">
          <mxGeometry y="90" width="180" height="30" as="geometry" />
        </mxCell>
        <mxCell id="63VN-XcSVFZszBxkWOSX-244" value="" style="shape=partialRectangle;connectable=0;fillColor=none;top=0;left=0;bottom=0;right=0;editable=1;overflow=hidden;whiteSpace=wrap;html=1;" vertex="1" parent="63VN-XcSVFZszBxkWOSX-243">
          <mxGeometry width="30" height="30" as="geometry">
            <mxRectangle width="30" height="30" as="alternateBounds" />
          </mxGeometry>
        </mxCell>
        <mxCell id="63VN-XcSVFZszBxkWOSX-245" value="Табличная часть" style="shape=partialRectangle;connectable=0;fillColor=none;top=0;left=0;bottom=0;right=0;align=left;spacingLeft=6;overflow=hidden;whiteSpace=wrap;html=1;" vertex="1" parent="63VN-XcSVFZszBxkWOSX-243">
          <mxGeometry x="30" width="150" height="30" as="geometry">
            <mxRectangle width="150" height="30" as="alternateBounds" />
          </mxGeometry>
        </mxCell>
        <mxCell id="63VN-XcSVFZszBxkWOSX-246" value="" style="shape=tableRow;horizontal=0;startSize=0;swimlaneHead=0;swimlaneBody=0;fillColor=none;collapsible=0;dropTarget=0;points=[[0,0.5],[1,0.5]];portConstraint=eastwest;top=0;left=0;right=0;bottom=0;" vertex="1" parent="63VN-XcSVFZszBxkWOSX-236">
          <mxGeometry y="120" width="180" height="30" as="geometry" />
        </mxCell>
        <mxCell id="63VN-XcSVFZszBxkWOSX-247" value="FK" style="shape=partialRectangle;connectable=0;fillColor=none;top=0;left=0;bottom=0;right=0;editable=1;overflow=hidden;whiteSpace=wrap;html=1;" vertex="1" parent="63VN-XcSVFZszBxkWOSX-246">
          <mxGeometry width="30" height="30" as="geometry">
            <mxRectangle width="30" height="30" as="alternateBounds" />
          </mxGeometry>
        </mxCell>
        <mxCell id="63VN-XcSVFZszBxkWOSX-248" value="ТипОборудования" style="shape=partialRectangle;connectable=0;fillColor=none;top=0;left=0;bottom=0;right=0;align=left;spacingLeft=6;overflow=hidden;whiteSpace=wrap;html=1;" vertex="1" parent="63VN-XcSVFZszBxkWOSX-246">
          <mxGeometry x="30" width="150" height="30" as="geometry">
            <mxRectangle width="150" height="30" as="alternateBounds" />
          </mxGeometry>
        </mxCell>
        <mxCell id="63VN-XcSVFZszBxkWOSX-251" value="" style="shape=tableRow;horizontal=0;startSize=0;swimlaneHead=0;swimlaneBody=0;fillColor=none;collapsible=0;dropTarget=0;points=[[0,0.5],[1,0.5]];portConstraint=eastwest;top=0;left=0;right=0;bottom=0;" vertex="1" parent="63VN-XcSVFZszBxkWOSX-236">
          <mxGeometry y="150" width="180" height="30" as="geometry" />
        </mxCell>
        <mxCell id="63VN-XcSVFZszBxkWOSX-252" value="FK" style="shape=partialRectangle;connectable=0;fillColor=none;top=0;left=0;bottom=0;right=0;editable=1;overflow=hidden;" vertex="1" parent="63VN-XcSVFZszBxkWOSX-251">
          <mxGeometry width="30" height="30" as="geometry">
            <mxRectangle width="30" height="30" as="alternateBounds" />
          </mxGeometry>
        </mxCell>
        <mxCell id="63VN-XcSVFZszBxkWOSX-253" value="Услуга" style="shape=partialRectangle;connectable=0;fillColor=none;top=0;left=0;bottom=0;right=0;align=left;spacingLeft=6;overflow=hidden;" vertex="1" parent="63VN-XcSVFZszBxkWOSX-251">
          <mxGeometry x="30" width="150" height="30" as="geometry">
            <mxRectangle width="150" height="30" as="alternateBounds" />
          </mxGeometry>
        </mxCell>
        <mxCell id="63VN-XcSVFZszBxkWOSX-506" value="" style="shape=tableRow;horizontal=0;startSize=0;swimlaneHead=0;swimlaneBody=0;fillColor=none;collapsible=0;dropTarget=0;points=[[0,0.5],[1,0.5]];portConstraint=eastwest;top=0;left=0;right=0;bottom=0;" vertex="1" parent="63VN-XcSVFZszBxkWOSX-236">
          <mxGeometry y="180" width="180" height="30" as="geometry" />
        </mxCell>
        <mxCell id="63VN-XcSVFZszBxkWOSX-507" value="" style="shape=partialRectangle;connectable=0;fillColor=none;top=0;left=0;bottom=0;right=0;editable=1;overflow=hidden;" vertex="1" parent="63VN-XcSVFZszBxkWOSX-506">
          <mxGeometry width="30" height="30" as="geometry">
            <mxRectangle width="30" height="30" as="alternateBounds" />
          </mxGeometry>
        </mxCell>
        <mxCell id="63VN-XcSVFZszBxkWOSX-508" value="Row" style="shape=partialRectangle;connectable=0;fillColor=none;top=0;left=0;bottom=0;right=0;align=left;spacingLeft=6;overflow=hidden;" vertex="1" parent="63VN-XcSVFZszBxkWOSX-506">
          <mxGeometry x="30" width="150" height="30" as="geometry">
            <mxRectangle width="150" height="30" as="alternateBounds" />
          </mxGeometry>
        </mxCell>
        <mxCell id="63VN-XcSVFZszBxkWOSX-249" value="" style="edgeStyle=orthogonalEdgeStyle;fontSize=12;html=1;endArrow=ERone;startArrow=ERone;rounded=0;startFill=0;endFill=0;entryX=0;entryY=0.5;entryDx=0;entryDy=0;exitX=0;exitY=0.5;exitDx=0;exitDy=0;" edge="1" parent="1" source="63VN-XcSVFZszBxkWOSX-237" target="63VN-XcSVFZszBxkWOSX-230">
          <mxGeometry width="100" height="100" relative="1" as="geometry">
            <mxPoint x="2130" y="1820" as="sourcePoint" />
            <mxPoint x="2230" y="1660" as="targetPoint" />
          </mxGeometry>
        </mxCell>
        <mxCell id="63VN-XcSVFZszBxkWOSX-254" value="" style="edgeStyle=orthogonalEdgeStyle;fontSize=12;html=1;endArrow=ERoneToMany;rounded=0;exitX=1;exitY=0.5;exitDx=0;exitDy=0;entryX=0;entryY=0.5;entryDx=0;entryDy=0;" edge="1" parent="1" source="63VN-XcSVFZszBxkWOSX-211" target="63VN-XcSVFZszBxkWOSX-251">
          <mxGeometry width="100" height="100" relative="1" as="geometry">
            <mxPoint x="2140" y="1860" as="sourcePoint" />
            <mxPoint x="2240" y="1760" as="targetPoint" />
          </mxGeometry>
        </mxCell>
        <mxCell id="63VN-XcSVFZszBxkWOSX-256" value="" style="edgeStyle=orthogonalEdgeStyle;fontSize=12;html=1;endArrow=ERoneToMany;rounded=0;exitX=1;exitY=0.5;exitDx=0;exitDy=0;entryX=0;entryY=0.5;entryDx=0;entryDy=0;" edge="1" parent="1" source="63VN-XcSVFZszBxkWOSX-73" target="63VN-XcSVFZszBxkWOSX-246">
          <mxGeometry width="100" height="100" relative="1" as="geometry">
            <mxPoint x="2280" y="1960" as="sourcePoint" />
            <mxPoint x="2600" y="2050" as="targetPoint" />
          </mxGeometry>
        </mxCell>
        <mxCell id="63VN-XcSVFZszBxkWOSX-257" value="ИсполнениеЗаявки" style="shape=table;startSize=30;container=1;collapsible=1;childLayout=tableLayout;fixedRows=1;rowLines=0;fontStyle=1;align=center;resizeLast=1;html=1;" vertex="1" parent="1">
          <mxGeometry x="1960" y="670" width="189" height="780" as="geometry" />
        </mxCell>
        <mxCell id="63VN-XcSVFZszBxkWOSX-258" value="" style="shape=tableRow;horizontal=0;startSize=0;swimlaneHead=0;swimlaneBody=0;fillColor=none;collapsible=0;dropTarget=0;points=[[0,0.5],[1,0.5]];portConstraint=eastwest;top=0;left=0;right=0;bottom=1;" vertex="1" parent="63VN-XcSVFZszBxkWOSX-257">
          <mxGeometry y="30" width="189" height="30" as="geometry" />
        </mxCell>
        <mxCell id="63VN-XcSVFZszBxkWOSX-259" value="PK" style="shape=partialRectangle;connectable=0;fillColor=none;top=0;left=0;bottom=0;right=0;fontStyle=1;overflow=hidden;whiteSpace=wrap;html=1;" vertex="1" parent="63VN-XcSVFZszBxkWOSX-258">
          <mxGeometry width="30" height="30" as="geometry">
            <mxRectangle width="30" height="30" as="alternateBounds" />
          </mxGeometry>
        </mxCell>
        <mxCell id="63VN-XcSVFZszBxkWOSX-260" value="Номер" style="shape=partialRectangle;connectable=0;fillColor=none;top=0;left=0;bottom=0;right=0;align=left;spacingLeft=6;fontStyle=5;overflow=hidden;whiteSpace=wrap;html=1;" vertex="1" parent="63VN-XcSVFZszBxkWOSX-258">
          <mxGeometry x="30" width="159" height="30" as="geometry">
            <mxRectangle width="159" height="30" as="alternateBounds" />
          </mxGeometry>
        </mxCell>
        <mxCell id="63VN-XcSVFZszBxkWOSX-261" value="" style="shape=tableRow;horizontal=0;startSize=0;swimlaneHead=0;swimlaneBody=0;fillColor=none;collapsible=0;dropTarget=0;points=[[0,0.5],[1,0.5]];portConstraint=eastwest;top=0;left=0;right=0;bottom=0;" vertex="1" parent="63VN-XcSVFZszBxkWOSX-257">
          <mxGeometry y="60" width="189" height="30" as="geometry" />
        </mxCell>
        <mxCell id="63VN-XcSVFZszBxkWOSX-262" value="" style="shape=partialRectangle;connectable=0;fillColor=none;top=0;left=0;bottom=0;right=0;editable=1;overflow=hidden;whiteSpace=wrap;html=1;" vertex="1" parent="63VN-XcSVFZszBxkWOSX-261">
          <mxGeometry width="30" height="30" as="geometry">
            <mxRectangle width="30" height="30" as="alternateBounds" />
          </mxGeometry>
        </mxCell>
        <mxCell id="63VN-XcSVFZszBxkWOSX-263" value="Дата" style="shape=partialRectangle;connectable=0;fillColor=none;top=0;left=0;bottom=0;right=0;align=left;spacingLeft=6;overflow=hidden;whiteSpace=wrap;html=1;" vertex="1" parent="63VN-XcSVFZszBxkWOSX-261">
          <mxGeometry x="30" width="159" height="30" as="geometry">
            <mxRectangle width="159" height="30" as="alternateBounds" />
          </mxGeometry>
        </mxCell>
        <mxCell id="63VN-XcSVFZszBxkWOSX-264" value="" style="shape=tableRow;horizontal=0;startSize=0;swimlaneHead=0;swimlaneBody=0;fillColor=none;collapsible=0;dropTarget=0;points=[[0,0.5],[1,0.5]];portConstraint=eastwest;top=0;left=0;right=0;bottom=0;" vertex="1" parent="63VN-XcSVFZszBxkWOSX-257">
          <mxGeometry y="90" width="189" height="30" as="geometry" />
        </mxCell>
        <mxCell id="63VN-XcSVFZszBxkWOSX-265" value="FK" style="shape=partialRectangle;connectable=0;fillColor=none;top=0;left=0;bottom=0;right=0;editable=1;overflow=hidden;whiteSpace=wrap;html=1;" vertex="1" parent="63VN-XcSVFZszBxkWOSX-264">
          <mxGeometry width="30" height="30" as="geometry">
            <mxRectangle width="30" height="30" as="alternateBounds" />
          </mxGeometry>
        </mxCell>
        <mxCell id="63VN-XcSVFZszBxkWOSX-266" value="Клиент" style="shape=partialRectangle;connectable=0;fillColor=none;top=0;left=0;bottom=0;right=0;align=left;spacingLeft=6;overflow=hidden;whiteSpace=wrap;html=1;" vertex="1" parent="63VN-XcSVFZszBxkWOSX-264">
          <mxGeometry x="30" width="159" height="30" as="geometry">
            <mxRectangle width="159" height="30" as="alternateBounds" />
          </mxGeometry>
        </mxCell>
        <mxCell id="63VN-XcSVFZszBxkWOSX-267" value="" style="shape=tableRow;horizontal=0;startSize=0;swimlaneHead=0;swimlaneBody=0;fillColor=none;collapsible=0;dropTarget=0;points=[[0,0.5],[1,0.5]];portConstraint=eastwest;top=0;left=0;right=0;bottom=0;" vertex="1" parent="63VN-XcSVFZszBxkWOSX-257">
          <mxGeometry y="120" width="189" height="30" as="geometry" />
        </mxCell>
        <mxCell id="63VN-XcSVFZszBxkWOSX-268" value="FK" style="shape=partialRectangle;connectable=0;fillColor=none;top=0;left=0;bottom=0;right=0;editable=1;overflow=hidden;whiteSpace=wrap;html=1;" vertex="1" parent="63VN-XcSVFZszBxkWOSX-267">
          <mxGeometry width="30" height="30" as="geometry">
            <mxRectangle width="30" height="30" as="alternateBounds" />
          </mxGeometry>
        </mxCell>
        <mxCell id="63VN-XcSVFZszBxkWOSX-269" value="Сотрудник" style="shape=partialRectangle;connectable=0;fillColor=none;top=0;left=0;bottom=0;right=0;align=left;spacingLeft=6;overflow=hidden;whiteSpace=wrap;html=1;" vertex="1" parent="63VN-XcSVFZszBxkWOSX-267">
          <mxGeometry x="30" width="159" height="30" as="geometry">
            <mxRectangle width="159" height="30" as="alternateBounds" />
          </mxGeometry>
        </mxCell>
        <mxCell id="63VN-XcSVFZszBxkWOSX-270" value="" style="shape=tableRow;horizontal=0;startSize=0;swimlaneHead=0;swimlaneBody=0;fillColor=none;collapsible=0;dropTarget=0;points=[[0,0.5],[1,0.5]];portConstraint=eastwest;top=0;left=0;right=0;bottom=0;" vertex="1" parent="63VN-XcSVFZszBxkWOSX-257">
          <mxGeometry y="150" width="189" height="30" as="geometry" />
        </mxCell>
        <mxCell id="63VN-XcSVFZszBxkWOSX-271" value="FK" style="shape=partialRectangle;connectable=0;fillColor=none;top=0;left=0;bottom=0;right=0;editable=1;overflow=hidden;" vertex="1" parent="63VN-XcSVFZszBxkWOSX-270">
          <mxGeometry width="30" height="30" as="geometry">
            <mxRectangle width="30" height="30" as="alternateBounds" />
          </mxGeometry>
        </mxCell>
        <mxCell id="63VN-XcSVFZszBxkWOSX-272" value="СтатусЗаявки" style="shape=partialRectangle;connectable=0;fillColor=none;top=0;left=0;bottom=0;right=0;align=left;spacingLeft=6;overflow=hidden;" vertex="1" parent="63VN-XcSVFZszBxkWOSX-270">
          <mxGeometry x="30" width="159" height="30" as="geometry">
            <mxRectangle width="159" height="30" as="alternateBounds" />
          </mxGeometry>
        </mxCell>
        <mxCell id="63VN-XcSVFZszBxkWOSX-503" value="" style="shape=tableRow;horizontal=0;startSize=0;swimlaneHead=0;swimlaneBody=0;fillColor=none;collapsible=0;dropTarget=0;points=[[0,0.5],[1,0.5]];portConstraint=eastwest;top=0;left=0;right=0;bottom=0;" vertex="1" parent="63VN-XcSVFZszBxkWOSX-257">
          <mxGeometry y="180" width="189" height="30" as="geometry" />
        </mxCell>
        <mxCell id="63VN-XcSVFZszBxkWOSX-504" value="FK" style="shape=partialRectangle;connectable=0;fillColor=none;top=0;left=0;bottom=0;right=0;editable=1;overflow=hidden;" vertex="1" parent="63VN-XcSVFZszBxkWOSX-503">
          <mxGeometry width="30" height="30" as="geometry">
            <mxRectangle width="30" height="30" as="alternateBounds" />
          </mxGeometry>
        </mxCell>
        <mxCell id="63VN-XcSVFZszBxkWOSX-505" value="ТипОборудования" style="shape=partialRectangle;connectable=0;fillColor=none;top=0;left=0;bottom=0;right=0;align=left;spacingLeft=6;overflow=hidden;" vertex="1" parent="63VN-XcSVFZszBxkWOSX-503">
          <mxGeometry x="30" width="159" height="30" as="geometry">
            <mxRectangle width="159" height="30" as="alternateBounds" />
          </mxGeometry>
        </mxCell>
        <mxCell id="63VN-XcSVFZszBxkWOSX-273" value="" style="shape=tableRow;horizontal=0;startSize=0;swimlaneHead=0;swimlaneBody=0;fillColor=none;collapsible=0;dropTarget=0;points=[[0,0.5],[1,0.5]];portConstraint=eastwest;top=0;left=0;right=0;bottom=0;" vertex="1" parent="63VN-XcSVFZszBxkWOSX-257">
          <mxGeometry y="210" width="189" height="30" as="geometry" />
        </mxCell>
        <mxCell id="63VN-XcSVFZszBxkWOSX-274" value="" style="shape=partialRectangle;connectable=0;fillColor=none;top=0;left=0;bottom=0;right=0;editable=1;overflow=hidden;labelBackgroundColor=default;" vertex="1" parent="63VN-XcSVFZszBxkWOSX-273">
          <mxGeometry width="30" height="30" as="geometry">
            <mxRectangle width="30" height="30" as="alternateBounds" />
          </mxGeometry>
        </mxCell>
        <mxCell id="63VN-XcSVFZszBxkWOSX-275" value="МодельОборудования" style="shape=partialRectangle;connectable=0;fillColor=none;top=0;left=0;bottom=0;right=0;align=left;spacingLeft=6;overflow=hidden;" vertex="1" parent="63VN-XcSVFZszBxkWOSX-273">
          <mxGeometry x="30" width="159" height="30" as="geometry">
            <mxRectangle width="159" height="30" as="alternateBounds" />
          </mxGeometry>
        </mxCell>
        <mxCell id="63VN-XcSVFZszBxkWOSX-276" value="" style="shape=tableRow;horizontal=0;startSize=0;swimlaneHead=0;swimlaneBody=0;fillColor=none;collapsible=0;dropTarget=0;points=[[0,0.5],[1,0.5]];portConstraint=eastwest;top=0;left=0;right=0;bottom=0;" vertex="1" parent="63VN-XcSVFZszBxkWOSX-257">
          <mxGeometry y="240" width="189" height="30" as="geometry" />
        </mxCell>
        <mxCell id="63VN-XcSVFZszBxkWOSX-277" value="FK" style="shape=partialRectangle;connectable=0;fillColor=none;top=0;left=0;bottom=0;right=0;editable=1;overflow=hidden;" vertex="1" parent="63VN-XcSVFZszBxkWOSX-276">
          <mxGeometry width="30" height="30" as="geometry">
            <mxRectangle width="30" height="30" as="alternateBounds" />
          </mxGeometry>
        </mxCell>
        <mxCell id="63VN-XcSVFZszBxkWOSX-278" value="Приоритет" style="shape=partialRectangle;connectable=0;fillColor=none;top=0;left=0;bottom=0;right=0;align=left;spacingLeft=6;overflow=hidden;" vertex="1" parent="63VN-XcSVFZszBxkWOSX-276">
          <mxGeometry x="30" width="159" height="30" as="geometry">
            <mxRectangle width="159" height="30" as="alternateBounds" />
          </mxGeometry>
        </mxCell>
        <mxCell id="63VN-XcSVFZszBxkWOSX-279" value="" style="shape=tableRow;horizontal=0;startSize=0;swimlaneHead=0;swimlaneBody=0;fillColor=none;collapsible=0;dropTarget=0;points=[[0,0.5],[1,0.5]];portConstraint=eastwest;top=0;left=0;right=0;bottom=0;" vertex="1" parent="63VN-XcSVFZszBxkWOSX-257">
          <mxGeometry y="270" width="189" height="30" as="geometry" />
        </mxCell>
        <mxCell id="63VN-XcSVFZszBxkWOSX-280" value="FK" style="shape=partialRectangle;connectable=0;fillColor=none;top=0;left=0;bottom=0;right=0;editable=1;overflow=hidden;" vertex="1" parent="63VN-XcSVFZszBxkWOSX-279">
          <mxGeometry width="30" height="30" as="geometry">
            <mxRectangle width="30" height="30" as="alternateBounds" />
          </mxGeometry>
        </mxCell>
        <mxCell id="63VN-XcSVFZszBxkWOSX-281" value="ДокументОснования" style="shape=partialRectangle;connectable=0;fillColor=none;top=0;left=0;bottom=0;right=0;align=left;spacingLeft=6;overflow=hidden;" vertex="1" parent="63VN-XcSVFZszBxkWOSX-279">
          <mxGeometry x="30" width="159" height="30" as="geometry">
            <mxRectangle width="159" height="30" as="alternateBounds" />
          </mxGeometry>
        </mxCell>
        <mxCell id="63VN-XcSVFZszBxkWOSX-282" value="" style="shape=tableRow;horizontal=0;startSize=0;swimlaneHead=0;swimlaneBody=0;fillColor=none;collapsible=0;dropTarget=0;points=[[0,0.5],[1,0.5]];portConstraint=eastwest;top=0;left=0;right=0;bottom=0;" vertex="1" parent="63VN-XcSVFZszBxkWOSX-257">
          <mxGeometry y="300" width="189" height="30" as="geometry" />
        </mxCell>
        <mxCell id="63VN-XcSVFZszBxkWOSX-283" value="" style="shape=partialRectangle;connectable=0;fillColor=none;top=0;left=0;bottom=0;right=0;editable=1;overflow=hidden;" vertex="1" parent="63VN-XcSVFZszBxkWOSX-282">
          <mxGeometry width="30" height="30" as="geometry">
            <mxRectangle width="30" height="30" as="alternateBounds" />
          </mxGeometry>
        </mxCell>
        <mxCell id="63VN-XcSVFZszBxkWOSX-284" value="ОбщаяСумма" style="shape=partialRectangle;connectable=0;fillColor=none;top=0;left=0;bottom=0;right=0;align=left;spacingLeft=6;overflow=hidden;" vertex="1" parent="63VN-XcSVFZszBxkWOSX-282">
          <mxGeometry x="30" width="159" height="30" as="geometry">
            <mxRectangle width="159" height="30" as="alternateBounds" />
          </mxGeometry>
        </mxCell>
        <mxCell id="63VN-XcSVFZszBxkWOSX-285" value="" style="shape=tableRow;horizontal=0;startSize=0;swimlaneHead=0;swimlaneBody=0;fillColor=none;collapsible=0;dropTarget=0;points=[[0,0.5],[1,0.5]];portConstraint=eastwest;top=0;left=0;right=0;bottom=0;" vertex="1" parent="63VN-XcSVFZszBxkWOSX-257">
          <mxGeometry y="330" width="189" height="30" as="geometry" />
        </mxCell>
        <mxCell id="63VN-XcSVFZszBxkWOSX-286" value="" style="shape=partialRectangle;connectable=0;fillColor=none;top=0;left=0;bottom=0;right=0;editable=1;overflow=hidden;" vertex="1" parent="63VN-XcSVFZszBxkWOSX-285">
          <mxGeometry width="30" height="30" as="geometry">
            <mxRectangle width="30" height="30" as="alternateBounds" />
          </mxGeometry>
        </mxCell>
        <mxCell id="63VN-XcSVFZszBxkWOSX-287" value="ДатаНачалаРемонта" style="shape=partialRectangle;connectable=0;fillColor=none;top=0;left=0;bottom=0;right=0;align=left;spacingLeft=6;overflow=hidden;" vertex="1" parent="63VN-XcSVFZszBxkWOSX-285">
          <mxGeometry x="30" width="159" height="30" as="geometry">
            <mxRectangle width="159" height="30" as="alternateBounds" />
          </mxGeometry>
        </mxCell>
        <mxCell id="63VN-XcSVFZszBxkWOSX-288" value="" style="shape=tableRow;horizontal=0;startSize=0;swimlaneHead=0;swimlaneBody=0;fillColor=none;collapsible=0;dropTarget=0;points=[[0,0.5],[1,0.5]];portConstraint=eastwest;top=0;left=0;right=0;bottom=0;" vertex="1" parent="63VN-XcSVFZszBxkWOSX-257">
          <mxGeometry y="360" width="189" height="30" as="geometry" />
        </mxCell>
        <mxCell id="63VN-XcSVFZszBxkWOSX-289" value="" style="shape=partialRectangle;connectable=0;fillColor=none;top=0;left=0;bottom=0;right=0;editable=1;overflow=hidden;" vertex="1" parent="63VN-XcSVFZszBxkWOSX-288">
          <mxGeometry width="30" height="30" as="geometry">
            <mxRectangle width="30" height="30" as="alternateBounds" />
          </mxGeometry>
        </mxCell>
        <mxCell id="63VN-XcSVFZszBxkWOSX-290" value="ДатаОкончанияРемонта" style="shape=partialRectangle;connectable=0;fillColor=none;top=0;left=0;bottom=0;right=0;align=left;spacingLeft=6;overflow=hidden;" vertex="1" parent="63VN-XcSVFZszBxkWOSX-288">
          <mxGeometry x="30" width="159" height="30" as="geometry">
            <mxRectangle width="159" height="30" as="alternateBounds" />
          </mxGeometry>
        </mxCell>
        <mxCell id="63VN-XcSVFZszBxkWOSX-291" style="shape=tableRow;horizontal=0;startSize=0;swimlaneHead=0;swimlaneBody=0;fillColor=#fff2cc;collapsible=0;dropTarget=0;points=[[0,0.5],[1,0.5]];portConstraint=eastwest;top=0;left=0;right=0;bottom=0;strokeColor=#d6b656;" vertex="1" parent="63VN-XcSVFZszBxkWOSX-257">
          <mxGeometry y="390" width="189" height="30" as="geometry" />
        </mxCell>
        <mxCell id="63VN-XcSVFZszBxkWOSX-292" style="shape=partialRectangle;connectable=0;fillColor=none;top=0;left=0;bottom=0;right=0;editable=1;overflow=hidden;" vertex="1" parent="63VN-XcSVFZszBxkWOSX-291">
          <mxGeometry width="30" height="30" as="geometry">
            <mxRectangle width="30" height="30" as="alternateBounds" />
          </mxGeometry>
        </mxCell>
        <mxCell id="63VN-XcSVFZszBxkWOSX-293" value="Табличная часть" style="shape=partialRectangle;connectable=0;fillColor=none;top=0;left=0;bottom=0;right=0;align=left;spacingLeft=6;overflow=hidden;" vertex="1" parent="63VN-XcSVFZszBxkWOSX-291">
          <mxGeometry x="30" width="159" height="30" as="geometry">
            <mxRectangle width="159" height="30" as="alternateBounds" />
          </mxGeometry>
        </mxCell>
        <mxCell id="63VN-XcSVFZszBxkWOSX-294" style="shape=tableRow;horizontal=0;startSize=0;swimlaneHead=0;swimlaneBody=0;collapsible=0;dropTarget=0;points=[[0,0.5],[1,0.5]];portConstraint=eastwest;top=0;left=0;right=0;bottom=0;fillColor=none;" vertex="1" parent="63VN-XcSVFZszBxkWOSX-257">
          <mxGeometry y="420" width="189" height="30" as="geometry" />
        </mxCell>
        <mxCell id="63VN-XcSVFZszBxkWOSX-295" style="shape=partialRectangle;connectable=0;fillColor=none;top=0;left=0;bottom=0;right=0;editable=1;overflow=hidden;" vertex="1" parent="63VN-XcSVFZszBxkWOSX-294">
          <mxGeometry width="30" height="30" as="geometry">
            <mxRectangle width="30" height="30" as="alternateBounds" />
          </mxGeometry>
        </mxCell>
        <mxCell id="63VN-XcSVFZszBxkWOSX-296" value="ОписаниеПроблемы" style="shape=partialRectangle;connectable=0;fillColor=none;top=0;left=0;bottom=0;right=0;align=left;spacingLeft=6;overflow=hidden;" vertex="1" parent="63VN-XcSVFZszBxkWOSX-294">
          <mxGeometry x="30" width="159" height="30" as="geometry">
            <mxRectangle width="159" height="30" as="alternateBounds" />
          </mxGeometry>
        </mxCell>
        <mxCell id="63VN-XcSVFZszBxkWOSX-297" value="" style="shape=tableRow;horizontal=0;startSize=0;swimlaneHead=0;swimlaneBody=0;fillColor=none;collapsible=0;dropTarget=0;points=[[0,0.5],[1,0.5]];portConstraint=eastwest;top=0;left=0;right=0;bottom=0;" vertex="1" parent="63VN-XcSVFZszBxkWOSX-257">
          <mxGeometry y="450" width="189" height="30" as="geometry" />
        </mxCell>
        <mxCell id="63VN-XcSVFZszBxkWOSX-298" value="FK" style="shape=partialRectangle;connectable=0;fillColor=none;top=0;left=0;bottom=0;right=0;editable=1;overflow=hidden;" vertex="1" parent="63VN-XcSVFZszBxkWOSX-297">
          <mxGeometry width="30" height="30" as="geometry">
            <mxRectangle width="30" height="30" as="alternateBounds" />
          </mxGeometry>
        </mxCell>
        <mxCell id="63VN-XcSVFZszBxkWOSX-299" value="Услуга" style="shape=partialRectangle;connectable=0;fillColor=none;top=0;left=0;bottom=0;right=0;align=left;spacingLeft=6;overflow=hidden;" vertex="1" parent="63VN-XcSVFZszBxkWOSX-297">
          <mxGeometry x="30" width="159" height="30" as="geometry">
            <mxRectangle width="159" height="30" as="alternateBounds" />
          </mxGeometry>
        </mxCell>
        <mxCell id="63VN-XcSVFZszBxkWOSX-300" value="" style="shape=tableRow;horizontal=0;startSize=0;swimlaneHead=0;swimlaneBody=0;fillColor=none;collapsible=0;dropTarget=0;points=[[0,0.5],[1,0.5]];portConstraint=eastwest;top=0;left=0;right=0;bottom=0;" vertex="1" parent="63VN-XcSVFZszBxkWOSX-257">
          <mxGeometry y="480" width="189" height="30" as="geometry" />
        </mxCell>
        <mxCell id="63VN-XcSVFZszBxkWOSX-301" value="" style="shape=partialRectangle;connectable=0;fillColor=none;top=0;left=0;bottom=0;right=0;editable=1;overflow=hidden;" vertex="1" parent="63VN-XcSVFZszBxkWOSX-300">
          <mxGeometry width="30" height="30" as="geometry">
            <mxRectangle width="30" height="30" as="alternateBounds" />
          </mxGeometry>
        </mxCell>
        <mxCell id="63VN-XcSVFZszBxkWOSX-302" value="Цена" style="shape=partialRectangle;connectable=0;fillColor=none;top=0;left=0;bottom=0;right=0;align=left;spacingLeft=6;overflow=hidden;" vertex="1" parent="63VN-XcSVFZszBxkWOSX-300">
          <mxGeometry x="30" width="159" height="30" as="geometry">
            <mxRectangle width="159" height="30" as="alternateBounds" />
          </mxGeometry>
        </mxCell>
        <mxCell id="63VN-XcSVFZszBxkWOSX-303" value="" style="shape=tableRow;horizontal=0;startSize=0;swimlaneHead=0;swimlaneBody=0;fillColor=none;collapsible=0;dropTarget=0;points=[[0,0.5],[1,0.5]];portConstraint=eastwest;top=0;left=0;right=0;bottom=0;" vertex="1" parent="63VN-XcSVFZszBxkWOSX-257">
          <mxGeometry y="510" width="189" height="30" as="geometry" />
        </mxCell>
        <mxCell id="63VN-XcSVFZszBxkWOSX-304" value="FK" style="shape=partialRectangle;connectable=0;fillColor=none;top=0;left=0;bottom=0;right=0;editable=1;overflow=hidden;" vertex="1" parent="63VN-XcSVFZszBxkWOSX-303">
          <mxGeometry width="30" height="30" as="geometry">
            <mxRectangle width="30" height="30" as="alternateBounds" />
          </mxGeometry>
        </mxCell>
        <mxCell id="63VN-XcSVFZszBxkWOSX-305" value="Исполнитель" style="shape=partialRectangle;connectable=0;fillColor=none;top=0;left=0;bottom=0;right=0;align=left;spacingLeft=6;overflow=hidden;" vertex="1" parent="63VN-XcSVFZszBxkWOSX-303">
          <mxGeometry x="30" width="159" height="30" as="geometry">
            <mxRectangle width="159" height="30" as="alternateBounds" />
          </mxGeometry>
        </mxCell>
        <mxCell id="63VN-XcSVFZszBxkWOSX-306" value="" style="shape=tableRow;horizontal=0;startSize=0;swimlaneHead=0;swimlaneBody=0;fillColor=none;collapsible=0;dropTarget=0;points=[[0,0.5],[1,0.5]];portConstraint=eastwest;top=0;left=0;right=0;bottom=0;" vertex="1" parent="63VN-XcSVFZszBxkWOSX-257">
          <mxGeometry y="540" width="189" height="30" as="geometry" />
        </mxCell>
        <mxCell id="63VN-XcSVFZszBxkWOSX-307" value="FK" style="shape=partialRectangle;connectable=0;fillColor=none;top=0;left=0;bottom=0;right=0;editable=1;overflow=hidden;" vertex="1" parent="63VN-XcSVFZszBxkWOSX-306">
          <mxGeometry width="30" height="30" as="geometry">
            <mxRectangle width="30" height="30" as="alternateBounds" />
          </mxGeometry>
        </mxCell>
        <mxCell id="63VN-XcSVFZszBxkWOSX-308" value="Приоритет" style="shape=partialRectangle;connectable=0;fillColor=none;top=0;left=0;bottom=0;right=0;align=left;spacingLeft=6;overflow=hidden;" vertex="1" parent="63VN-XcSVFZszBxkWOSX-306">
          <mxGeometry x="30" width="159" height="30" as="geometry">
            <mxRectangle width="159" height="30" as="alternateBounds" />
          </mxGeometry>
        </mxCell>
        <mxCell id="63VN-XcSVFZszBxkWOSX-309" value="" style="shape=tableRow;horizontal=0;startSize=0;swimlaneHead=0;swimlaneBody=0;fillColor=#fff2cc;collapsible=0;dropTarget=0;points=[[0,0.5],[1,0.5]];portConstraint=eastwest;top=0;left=0;right=0;bottom=0;strokeColor=#d6b656;" vertex="1" parent="63VN-XcSVFZszBxkWOSX-257">
          <mxGeometry y="570" width="189" height="30" as="geometry" />
        </mxCell>
        <mxCell id="63VN-XcSVFZszBxkWOSX-310" value="" style="shape=partialRectangle;connectable=0;fillColor=none;top=0;left=0;bottom=0;right=0;editable=1;overflow=hidden;" vertex="1" parent="63VN-XcSVFZszBxkWOSX-309">
          <mxGeometry width="30" height="30" as="geometry">
            <mxRectangle width="30" height="30" as="alternateBounds" />
          </mxGeometry>
        </mxCell>
        <mxCell id="63VN-XcSVFZszBxkWOSX-311" value="ТабличнаяЧасть" style="shape=partialRectangle;connectable=0;fillColor=none;top=0;left=0;bottom=0;right=0;align=left;spacingLeft=6;overflow=hidden;" vertex="1" parent="63VN-XcSVFZszBxkWOSX-309">
          <mxGeometry x="30" width="159" height="30" as="geometry">
            <mxRectangle width="159" height="30" as="alternateBounds" />
          </mxGeometry>
        </mxCell>
        <mxCell id="63VN-XcSVFZszBxkWOSX-315" value="" style="shape=tableRow;horizontal=0;startSize=0;swimlaneHead=0;swimlaneBody=0;fillColor=none;collapsible=0;dropTarget=0;points=[[0,0.5],[1,0.5]];portConstraint=eastwest;top=0;left=0;right=0;bottom=0;" vertex="1" parent="63VN-XcSVFZszBxkWOSX-257">
          <mxGeometry y="600" width="189" height="30" as="geometry" />
        </mxCell>
        <mxCell id="63VN-XcSVFZszBxkWOSX-316" value="FK" style="shape=partialRectangle;connectable=0;fillColor=none;top=0;left=0;bottom=0;right=0;editable=1;overflow=hidden;" vertex="1" parent="63VN-XcSVFZszBxkWOSX-315">
          <mxGeometry width="30" height="30" as="geometry">
            <mxRectangle width="30" height="30" as="alternateBounds" />
          </mxGeometry>
        </mxCell>
        <mxCell id="63VN-XcSVFZszBxkWOSX-317" value="Комплектующие" style="shape=partialRectangle;connectable=0;fillColor=none;top=0;left=0;bottom=0;right=0;align=left;spacingLeft=6;overflow=hidden;" vertex="1" parent="63VN-XcSVFZszBxkWOSX-315">
          <mxGeometry x="30" width="159" height="30" as="geometry">
            <mxRectangle width="159" height="30" as="alternateBounds" />
          </mxGeometry>
        </mxCell>
        <mxCell id="63VN-XcSVFZszBxkWOSX-318" value="" style="shape=tableRow;horizontal=0;startSize=0;swimlaneHead=0;swimlaneBody=0;fillColor=none;collapsible=0;dropTarget=0;points=[[0,0.5],[1,0.5]];portConstraint=eastwest;top=0;left=0;right=0;bottom=0;" vertex="1" parent="63VN-XcSVFZszBxkWOSX-257">
          <mxGeometry y="630" width="189" height="30" as="geometry" />
        </mxCell>
        <mxCell id="63VN-XcSVFZszBxkWOSX-319" value="" style="shape=partialRectangle;connectable=0;fillColor=none;top=0;left=0;bottom=0;right=0;editable=1;overflow=hidden;" vertex="1" parent="63VN-XcSVFZszBxkWOSX-318">
          <mxGeometry width="30" height="30" as="geometry">
            <mxRectangle width="30" height="30" as="alternateBounds" />
          </mxGeometry>
        </mxCell>
        <mxCell id="63VN-XcSVFZszBxkWOSX-320" value="Количество" style="shape=partialRectangle;connectable=0;fillColor=none;top=0;left=0;bottom=0;right=0;align=left;spacingLeft=6;overflow=hidden;" vertex="1" parent="63VN-XcSVFZszBxkWOSX-318">
          <mxGeometry x="30" width="159" height="30" as="geometry">
            <mxRectangle width="159" height="30" as="alternateBounds" />
          </mxGeometry>
        </mxCell>
        <mxCell id="63VN-XcSVFZszBxkWOSX-321" value="" style="shape=tableRow;horizontal=0;startSize=0;swimlaneHead=0;swimlaneBody=0;fillColor=none;collapsible=0;dropTarget=0;points=[[0,0.5],[1,0.5]];portConstraint=eastwest;top=0;left=0;right=0;bottom=0;" vertex="1" parent="63VN-XcSVFZszBxkWOSX-257">
          <mxGeometry y="660" width="189" height="30" as="geometry" />
        </mxCell>
        <mxCell id="63VN-XcSVFZszBxkWOSX-322" value="" style="shape=partialRectangle;connectable=0;fillColor=none;top=0;left=0;bottom=0;right=0;editable=1;overflow=hidden;" vertex="1" parent="63VN-XcSVFZszBxkWOSX-321">
          <mxGeometry width="30" height="30" as="geometry">
            <mxRectangle width="30" height="30" as="alternateBounds" />
          </mxGeometry>
        </mxCell>
        <mxCell id="63VN-XcSVFZszBxkWOSX-323" value="Цена" style="shape=partialRectangle;connectable=0;fillColor=none;top=0;left=0;bottom=0;right=0;align=left;spacingLeft=6;overflow=hidden;" vertex="1" parent="63VN-XcSVFZszBxkWOSX-321">
          <mxGeometry x="30" width="159" height="30" as="geometry">
            <mxRectangle width="159" height="30" as="alternateBounds" />
          </mxGeometry>
        </mxCell>
        <mxCell id="63VN-XcSVFZszBxkWOSX-324" value="" style="shape=tableRow;horizontal=0;startSize=0;swimlaneHead=0;swimlaneBody=0;fillColor=none;collapsible=0;dropTarget=0;points=[[0,0.5],[1,0.5]];portConstraint=eastwest;top=0;left=0;right=0;bottom=0;" vertex="1" parent="63VN-XcSVFZszBxkWOSX-257">
          <mxGeometry y="690" width="189" height="30" as="geometry" />
        </mxCell>
        <mxCell id="63VN-XcSVFZszBxkWOSX-325" value="" style="shape=partialRectangle;connectable=0;fillColor=none;top=0;left=0;bottom=0;right=0;editable=1;overflow=hidden;" vertex="1" parent="63VN-XcSVFZszBxkWOSX-324">
          <mxGeometry width="30" height="30" as="geometry">
            <mxRectangle width="30" height="30" as="alternateBounds" />
          </mxGeometry>
        </mxCell>
        <mxCell id="63VN-XcSVFZszBxkWOSX-326" value="Сумма" style="shape=partialRectangle;connectable=0;fillColor=none;top=0;left=0;bottom=0;right=0;align=left;spacingLeft=6;overflow=hidden;" vertex="1" parent="63VN-XcSVFZszBxkWOSX-324">
          <mxGeometry x="30" width="159" height="30" as="geometry">
            <mxRectangle width="159" height="30" as="alternateBounds" />
          </mxGeometry>
        </mxCell>
        <mxCell id="63VN-XcSVFZszBxkWOSX-327" value="" style="shape=tableRow;horizontal=0;startSize=0;swimlaneHead=0;swimlaneBody=0;fillColor=none;collapsible=0;dropTarget=0;points=[[0,0.5],[1,0.5]];portConstraint=eastwest;top=0;left=0;right=0;bottom=0;" vertex="1" parent="63VN-XcSVFZszBxkWOSX-257">
          <mxGeometry y="720" width="189" height="30" as="geometry" />
        </mxCell>
        <mxCell id="63VN-XcSVFZszBxkWOSX-328" value="FK" style="shape=partialRectangle;connectable=0;fillColor=none;top=0;left=0;bottom=0;right=0;editable=1;overflow=hidden;" vertex="1" parent="63VN-XcSVFZszBxkWOSX-327">
          <mxGeometry width="30" height="30" as="geometry">
            <mxRectangle width="30" height="30" as="alternateBounds" />
          </mxGeometry>
        </mxCell>
        <mxCell id="63VN-XcSVFZszBxkWOSX-329" value="ЭтапВыполнения" style="shape=partialRectangle;connectable=0;fillColor=none;top=0;left=0;bottom=0;right=0;align=left;spacingLeft=6;overflow=hidden;" vertex="1" parent="63VN-XcSVFZszBxkWOSX-327">
          <mxGeometry x="30" width="159" height="30" as="geometry">
            <mxRectangle width="159" height="30" as="alternateBounds" />
          </mxGeometry>
        </mxCell>
        <mxCell id="63VN-XcSVFZszBxkWOSX-330" value="" style="shape=tableRow;horizontal=0;startSize=0;swimlaneHead=0;swimlaneBody=0;fillColor=none;collapsible=0;dropTarget=0;points=[[0,0.5],[1,0.5]];portConstraint=eastwest;top=0;left=0;right=0;bottom=0;" vertex="1" parent="63VN-XcSVFZszBxkWOSX-257">
          <mxGeometry y="750" width="189" height="30" as="geometry" />
        </mxCell>
        <mxCell id="63VN-XcSVFZszBxkWOSX-331" value="" style="shape=partialRectangle;connectable=0;fillColor=none;top=0;left=0;bottom=0;right=0;editable=1;overflow=hidden;" vertex="1" parent="63VN-XcSVFZszBxkWOSX-330">
          <mxGeometry width="30" height="30" as="geometry">
            <mxRectangle width="30" height="30" as="alternateBounds" />
          </mxGeometry>
        </mxCell>
        <mxCell id="63VN-XcSVFZszBxkWOSX-332" value="Комментарий" style="shape=partialRectangle;connectable=0;fillColor=none;top=0;left=0;bottom=0;right=0;align=left;spacingLeft=6;overflow=hidden;" vertex="1" parent="63VN-XcSVFZszBxkWOSX-330">
          <mxGeometry x="30" width="159" height="30" as="geometry">
            <mxRectangle width="159" height="30" as="alternateBounds" />
          </mxGeometry>
        </mxCell>
        <mxCell id="63VN-XcSVFZszBxkWOSX-333" value="ЭтапыВыполнения" style="shape=table;startSize=30;container=1;collapsible=1;childLayout=tableLayout;fixedRows=1;rowLines=0;fontStyle=1;align=center;resizeLast=1;html=1;" vertex="1" parent="1">
          <mxGeometry x="2310" y="1220" width="180" height="90" as="geometry" />
        </mxCell>
        <mxCell id="63VN-XcSVFZszBxkWOSX-334" value="" style="shape=tableRow;horizontal=0;startSize=0;swimlaneHead=0;swimlaneBody=0;fillColor=none;collapsible=0;dropTarget=0;points=[[0,0.5],[1,0.5]];portConstraint=eastwest;top=0;left=0;right=0;bottom=1;" vertex="1" parent="63VN-XcSVFZszBxkWOSX-333">
          <mxGeometry y="30" width="180" height="30" as="geometry" />
        </mxCell>
        <mxCell id="63VN-XcSVFZszBxkWOSX-335" value="PK" style="shape=partialRectangle;connectable=0;fillColor=none;top=0;left=0;bottom=0;right=0;fontStyle=1;overflow=hidden;whiteSpace=wrap;html=1;" vertex="1" parent="63VN-XcSVFZszBxkWOSX-334">
          <mxGeometry width="30" height="30" as="geometry">
            <mxRectangle width="30" height="30" as="alternateBounds" />
          </mxGeometry>
        </mxCell>
        <mxCell id="63VN-XcSVFZszBxkWOSX-336" value="Код" style="shape=partialRectangle;connectable=0;fillColor=none;top=0;left=0;bottom=0;right=0;align=left;spacingLeft=6;fontStyle=5;overflow=hidden;whiteSpace=wrap;html=1;" vertex="1" parent="63VN-XcSVFZszBxkWOSX-334">
          <mxGeometry x="30" width="150" height="30" as="geometry">
            <mxRectangle width="150" height="30" as="alternateBounds" />
          </mxGeometry>
        </mxCell>
        <mxCell id="63VN-XcSVFZszBxkWOSX-337" value="" style="shape=tableRow;horizontal=0;startSize=0;swimlaneHead=0;swimlaneBody=0;fillColor=none;collapsible=0;dropTarget=0;points=[[0,0.5],[1,0.5]];portConstraint=eastwest;top=0;left=0;right=0;bottom=0;" vertex="1" parent="63VN-XcSVFZszBxkWOSX-333">
          <mxGeometry y="60" width="180" height="30" as="geometry" />
        </mxCell>
        <mxCell id="63VN-XcSVFZszBxkWOSX-338" value="" style="shape=partialRectangle;connectable=0;fillColor=none;top=0;left=0;bottom=0;right=0;editable=1;overflow=hidden;whiteSpace=wrap;html=1;" vertex="1" parent="63VN-XcSVFZszBxkWOSX-337">
          <mxGeometry width="30" height="30" as="geometry">
            <mxRectangle width="30" height="30" as="alternateBounds" />
          </mxGeometry>
        </mxCell>
        <mxCell id="63VN-XcSVFZszBxkWOSX-339" value="Наименование" style="shape=partialRectangle;connectable=0;fillColor=none;top=0;left=0;bottom=0;right=0;align=left;spacingLeft=6;overflow=hidden;whiteSpace=wrap;html=1;" vertex="1" parent="63VN-XcSVFZszBxkWOSX-337">
          <mxGeometry x="30" width="150" height="30" as="geometry">
            <mxRectangle width="150" height="30" as="alternateBounds" />
          </mxGeometry>
        </mxCell>
        <mxCell id="63VN-XcSVFZszBxkWOSX-346" value="" style="edgeStyle=orthogonalEdgeStyle;fontSize=12;html=1;endArrow=ERoneToMany;rounded=0;exitX=0;exitY=0.5;exitDx=0;exitDy=0;startArrow=ERone;startFill=0;entryX=1;entryY=0.5;entryDx=0;entryDy=0;" edge="1" parent="1" source="63VN-XcSVFZszBxkWOSX-334" target="63VN-XcSVFZszBxkWOSX-327">
          <mxGeometry width="100" height="100" relative="1" as="geometry">
            <mxPoint x="2220" y="1140" as="sourcePoint" />
            <mxPoint x="2320" y="1040" as="targetPoint" />
          </mxGeometry>
        </mxCell>
        <mxCell id="63VN-XcSVFZszBxkWOSX-352" value="" style="edgeStyle=orthogonalEdgeStyle;fontSize=12;html=1;endArrow=ERoneToMany;rounded=0;exitX=1;exitY=0.5;exitDx=0;exitDy=0;entryX=0;entryY=0.5;entryDx=0;entryDy=0;startArrow=ERone;startFill=0;" edge="1" parent="1" source="63VN-XcSVFZszBxkWOSX-139" target="63VN-XcSVFZszBxkWOSX-279">
          <mxGeometry width="100" height="100" relative="1" as="geometry">
            <mxPoint x="1610" y="820" as="sourcePoint" />
            <mxPoint x="1710" y="720" as="targetPoint" />
          </mxGeometry>
        </mxCell>
        <mxCell id="63VN-XcSVFZszBxkWOSX-353" value="Комплектующие" style="shape=table;startSize=30;container=1;collapsible=1;childLayout=tableLayout;fixedRows=1;rowLines=0;fontStyle=1;align=center;resizeLast=1;html=1;" vertex="1" parent="1">
          <mxGeometry x="2360" y="970" width="180" height="150" as="geometry" />
        </mxCell>
        <mxCell id="63VN-XcSVFZszBxkWOSX-354" value="" style="shape=tableRow;horizontal=0;startSize=0;swimlaneHead=0;swimlaneBody=0;fillColor=none;collapsible=0;dropTarget=0;points=[[0,0.5],[1,0.5]];portConstraint=eastwest;top=0;left=0;right=0;bottom=1;" vertex="1" parent="63VN-XcSVFZszBxkWOSX-353">
          <mxGeometry y="30" width="180" height="30" as="geometry" />
        </mxCell>
        <mxCell id="63VN-XcSVFZszBxkWOSX-355" value="PK" style="shape=partialRectangle;connectable=0;fillColor=none;top=0;left=0;bottom=0;right=0;fontStyle=1;overflow=hidden;whiteSpace=wrap;html=1;" vertex="1" parent="63VN-XcSVFZszBxkWOSX-354">
          <mxGeometry width="30" height="30" as="geometry">
            <mxRectangle width="30" height="30" as="alternateBounds" />
          </mxGeometry>
        </mxCell>
        <mxCell id="63VN-XcSVFZszBxkWOSX-356" value="Код" style="shape=partialRectangle;connectable=0;fillColor=none;top=0;left=0;bottom=0;right=0;align=left;spacingLeft=6;fontStyle=5;overflow=hidden;whiteSpace=wrap;html=1;" vertex="1" parent="63VN-XcSVFZszBxkWOSX-354">
          <mxGeometry x="30" width="150" height="30" as="geometry">
            <mxRectangle width="150" height="30" as="alternateBounds" />
          </mxGeometry>
        </mxCell>
        <mxCell id="63VN-XcSVFZszBxkWOSX-357" value="" style="shape=tableRow;horizontal=0;startSize=0;swimlaneHead=0;swimlaneBody=0;fillColor=none;collapsible=0;dropTarget=0;points=[[0,0.5],[1,0.5]];portConstraint=eastwest;top=0;left=0;right=0;bottom=0;" vertex="1" parent="63VN-XcSVFZszBxkWOSX-353">
          <mxGeometry y="60" width="180" height="30" as="geometry" />
        </mxCell>
        <mxCell id="63VN-XcSVFZszBxkWOSX-358" value="" style="shape=partialRectangle;connectable=0;fillColor=none;top=0;left=0;bottom=0;right=0;editable=1;overflow=hidden;whiteSpace=wrap;html=1;" vertex="1" parent="63VN-XcSVFZszBxkWOSX-357">
          <mxGeometry width="30" height="30" as="geometry">
            <mxRectangle width="30" height="30" as="alternateBounds" />
          </mxGeometry>
        </mxCell>
        <mxCell id="63VN-XcSVFZszBxkWOSX-359" value="Наименование" style="shape=partialRectangle;connectable=0;fillColor=none;top=0;left=0;bottom=0;right=0;align=left;spacingLeft=6;overflow=hidden;whiteSpace=wrap;html=1;" vertex="1" parent="63VN-XcSVFZszBxkWOSX-357">
          <mxGeometry x="30" width="150" height="30" as="geometry">
            <mxRectangle width="150" height="30" as="alternateBounds" />
          </mxGeometry>
        </mxCell>
        <mxCell id="63VN-XcSVFZszBxkWOSX-389" value="" style="shape=tableRow;horizontal=0;startSize=0;swimlaneHead=0;swimlaneBody=0;fillColor=none;collapsible=0;dropTarget=0;points=[[0,0.5],[1,0.5]];portConstraint=eastwest;top=0;left=0;right=0;bottom=0;" vertex="1" parent="63VN-XcSVFZszBxkWOSX-353">
          <mxGeometry y="90" width="180" height="30" as="geometry" />
        </mxCell>
        <mxCell id="63VN-XcSVFZszBxkWOSX-390" value="" style="shape=partialRectangle;connectable=0;fillColor=none;top=0;left=0;bottom=0;right=0;editable=1;overflow=hidden;" vertex="1" parent="63VN-XcSVFZszBxkWOSX-389">
          <mxGeometry width="30" height="30" as="geometry">
            <mxRectangle width="30" height="30" as="alternateBounds" />
          </mxGeometry>
        </mxCell>
        <mxCell id="63VN-XcSVFZszBxkWOSX-391" value="Описание" style="shape=partialRectangle;connectable=0;fillColor=none;top=0;left=0;bottom=0;right=0;align=left;spacingLeft=6;overflow=hidden;" vertex="1" parent="63VN-XcSVFZszBxkWOSX-389">
          <mxGeometry x="30" width="150" height="30" as="geometry">
            <mxRectangle width="150" height="30" as="alternateBounds" />
          </mxGeometry>
        </mxCell>
        <mxCell id="63VN-XcSVFZszBxkWOSX-395" value="" style="shape=tableRow;horizontal=0;startSize=0;swimlaneHead=0;swimlaneBody=0;fillColor=none;collapsible=0;dropTarget=0;points=[[0,0.5],[1,0.5]];portConstraint=eastwest;top=0;left=0;right=0;bottom=0;" vertex="1" parent="63VN-XcSVFZszBxkWOSX-353">
          <mxGeometry y="120" width="180" height="30" as="geometry" />
        </mxCell>
        <mxCell id="63VN-XcSVFZszBxkWOSX-396" value="FK" style="shape=partialRectangle;connectable=0;fillColor=none;top=0;left=0;bottom=0;right=0;editable=1;overflow=hidden;" vertex="1" parent="63VN-XcSVFZszBxkWOSX-395">
          <mxGeometry width="30" height="30" as="geometry">
            <mxRectangle width="30" height="30" as="alternateBounds" />
          </mxGeometry>
        </mxCell>
        <mxCell id="63VN-XcSVFZszBxkWOSX-397" value="Качество" style="shape=partialRectangle;connectable=0;fillColor=none;top=0;left=0;bottom=0;right=0;align=left;spacingLeft=6;overflow=hidden;" vertex="1" parent="63VN-XcSVFZszBxkWOSX-395">
          <mxGeometry x="30" width="150" height="30" as="geometry">
            <mxRectangle width="150" height="30" as="alternateBounds" />
          </mxGeometry>
        </mxCell>
        <mxCell id="63VN-XcSVFZszBxkWOSX-366" value="" style="edgeStyle=orthogonalEdgeStyle;fontSize=12;html=1;endArrow=ERoneToMany;rounded=0;exitX=0;exitY=0.5;exitDx=0;exitDy=0;entryX=1;entryY=0.5;entryDx=0;entryDy=0;" edge="1" parent="1" source="63VN-XcSVFZszBxkWOSX-354" target="63VN-XcSVFZszBxkWOSX-315">
          <mxGeometry width="100" height="100" relative="1" as="geometry">
            <mxPoint x="2220" y="1080" as="sourcePoint" />
            <mxPoint x="2320" y="980" as="targetPoint" />
          </mxGeometry>
        </mxCell>
        <mxCell id="63VN-XcSVFZszBxkWOSX-398" value="Категория качества" style="shape=table;startSize=30;container=1;collapsible=1;childLayout=tableLayout;fixedRows=1;rowLines=0;fontStyle=1;align=center;resizeLast=1;html=1;" vertex="1" parent="1">
          <mxGeometry x="2640" y="1080" width="180" height="90" as="geometry" />
        </mxCell>
        <mxCell id="63VN-XcSVFZszBxkWOSX-399" value="" style="shape=tableRow;horizontal=0;startSize=0;swimlaneHead=0;swimlaneBody=0;fillColor=none;collapsible=0;dropTarget=0;points=[[0,0.5],[1,0.5]];portConstraint=eastwest;top=0;left=0;right=0;bottom=1;" vertex="1" parent="63VN-XcSVFZszBxkWOSX-398">
          <mxGeometry y="30" width="180" height="30" as="geometry" />
        </mxCell>
        <mxCell id="63VN-XcSVFZszBxkWOSX-400" value="PK" style="shape=partialRectangle;connectable=0;fillColor=none;top=0;left=0;bottom=0;right=0;fontStyle=1;overflow=hidden;whiteSpace=wrap;html=1;" vertex="1" parent="63VN-XcSVFZszBxkWOSX-399">
          <mxGeometry width="30" height="30" as="geometry">
            <mxRectangle width="30" height="30" as="alternateBounds" />
          </mxGeometry>
        </mxCell>
        <mxCell id="63VN-XcSVFZszBxkWOSX-401" value="Код" style="shape=partialRectangle;connectable=0;fillColor=none;top=0;left=0;bottom=0;right=0;align=left;spacingLeft=6;fontStyle=5;overflow=hidden;whiteSpace=wrap;html=1;" vertex="1" parent="63VN-XcSVFZszBxkWOSX-399">
          <mxGeometry x="30" width="150" height="30" as="geometry">
            <mxRectangle width="150" height="30" as="alternateBounds" />
          </mxGeometry>
        </mxCell>
        <mxCell id="63VN-XcSVFZszBxkWOSX-402" value="" style="shape=tableRow;horizontal=0;startSize=0;swimlaneHead=0;swimlaneBody=0;fillColor=none;collapsible=0;dropTarget=0;points=[[0,0.5],[1,0.5]];portConstraint=eastwest;top=0;left=0;right=0;bottom=0;" vertex="1" parent="63VN-XcSVFZszBxkWOSX-398">
          <mxGeometry y="60" width="180" height="30" as="geometry" />
        </mxCell>
        <mxCell id="63VN-XcSVFZszBxkWOSX-403" value="" style="shape=partialRectangle;connectable=0;fillColor=none;top=0;left=0;bottom=0;right=0;editable=1;overflow=hidden;whiteSpace=wrap;html=1;" vertex="1" parent="63VN-XcSVFZszBxkWOSX-402">
          <mxGeometry width="30" height="30" as="geometry">
            <mxRectangle width="30" height="30" as="alternateBounds" />
          </mxGeometry>
        </mxCell>
        <mxCell id="63VN-XcSVFZszBxkWOSX-404" value="Наименование" style="shape=partialRectangle;connectable=0;fillColor=none;top=0;left=0;bottom=0;right=0;align=left;spacingLeft=6;overflow=hidden;whiteSpace=wrap;html=1;" vertex="1" parent="63VN-XcSVFZszBxkWOSX-402">
          <mxGeometry x="30" width="150" height="30" as="geometry">
            <mxRectangle width="150" height="30" as="alternateBounds" />
          </mxGeometry>
        </mxCell>
        <mxCell id="63VN-XcSVFZszBxkWOSX-412" value="" style="edgeStyle=orthogonalEdgeStyle;fontSize=12;html=1;endArrow=ERoneToMany;rounded=0;exitX=0;exitY=0.5;exitDx=0;exitDy=0;" edge="1" parent="1" source="63VN-XcSVFZszBxkWOSX-399" target="63VN-XcSVFZszBxkWOSX-395">
          <mxGeometry width="100" height="100" relative="1" as="geometry">
            <mxPoint x="2580" y="1270" as="sourcePoint" />
            <mxPoint x="2680" y="1170" as="targetPoint" />
          </mxGeometry>
        </mxCell>
        <mxCell id="63VN-XcSVFZszBxkWOSX-413" value="Заказ комплектующих" style="shape=table;startSize=30;container=1;collapsible=1;childLayout=tableLayout;fixedRows=1;rowLines=0;fontStyle=1;align=center;resizeLast=1;html=1;" vertex="1" parent="1">
          <mxGeometry x="2580" y="290" width="180" height="360" as="geometry" />
        </mxCell>
        <mxCell id="63VN-XcSVFZszBxkWOSX-414" value="" style="shape=tableRow;horizontal=0;startSize=0;swimlaneHead=0;swimlaneBody=0;fillColor=none;collapsible=0;dropTarget=0;points=[[0,0.5],[1,0.5]];portConstraint=eastwest;top=0;left=0;right=0;bottom=1;" vertex="1" parent="63VN-XcSVFZszBxkWOSX-413">
          <mxGeometry y="30" width="180" height="30" as="geometry" />
        </mxCell>
        <mxCell id="63VN-XcSVFZszBxkWOSX-415" value="PK" style="shape=partialRectangle;connectable=0;fillColor=none;top=0;left=0;bottom=0;right=0;fontStyle=1;overflow=hidden;whiteSpace=wrap;html=1;" vertex="1" parent="63VN-XcSVFZszBxkWOSX-414">
          <mxGeometry width="30" height="30" as="geometry">
            <mxRectangle width="30" height="30" as="alternateBounds" />
          </mxGeometry>
        </mxCell>
        <mxCell id="63VN-XcSVFZszBxkWOSX-416" value="Номер" style="shape=partialRectangle;connectable=0;fillColor=none;top=0;left=0;bottom=0;right=0;align=left;spacingLeft=6;fontStyle=5;overflow=hidden;whiteSpace=wrap;html=1;" vertex="1" parent="63VN-XcSVFZszBxkWOSX-414">
          <mxGeometry x="30" width="150" height="30" as="geometry">
            <mxRectangle width="150" height="30" as="alternateBounds" />
          </mxGeometry>
        </mxCell>
        <mxCell id="63VN-XcSVFZszBxkWOSX-417" value="" style="shape=tableRow;horizontal=0;startSize=0;swimlaneHead=0;swimlaneBody=0;fillColor=none;collapsible=0;dropTarget=0;points=[[0,0.5],[1,0.5]];portConstraint=eastwest;top=0;left=0;right=0;bottom=0;" vertex="1" parent="63VN-XcSVFZszBxkWOSX-413">
          <mxGeometry y="60" width="180" height="30" as="geometry" />
        </mxCell>
        <mxCell id="63VN-XcSVFZszBxkWOSX-418" value="" style="shape=partialRectangle;connectable=0;fillColor=none;top=0;left=0;bottom=0;right=0;editable=1;overflow=hidden;whiteSpace=wrap;html=1;" vertex="1" parent="63VN-XcSVFZszBxkWOSX-417">
          <mxGeometry width="30" height="30" as="geometry">
            <mxRectangle width="30" height="30" as="alternateBounds" />
          </mxGeometry>
        </mxCell>
        <mxCell id="63VN-XcSVFZszBxkWOSX-419" value="Дата" style="shape=partialRectangle;connectable=0;fillColor=none;top=0;left=0;bottom=0;right=0;align=left;spacingLeft=6;overflow=hidden;whiteSpace=wrap;html=1;" vertex="1" parent="63VN-XcSVFZszBxkWOSX-417">
          <mxGeometry x="30" width="150" height="30" as="geometry">
            <mxRectangle width="150" height="30" as="alternateBounds" />
          </mxGeometry>
        </mxCell>
        <mxCell id="63VN-XcSVFZszBxkWOSX-420" value="" style="shape=tableRow;horizontal=0;startSize=0;swimlaneHead=0;swimlaneBody=0;fillColor=none;collapsible=0;dropTarget=0;points=[[0,0.5],[1,0.5]];portConstraint=eastwest;top=0;left=0;right=0;bottom=0;" vertex="1" parent="63VN-XcSVFZszBxkWOSX-413">
          <mxGeometry y="90" width="180" height="30" as="geometry" />
        </mxCell>
        <mxCell id="63VN-XcSVFZszBxkWOSX-421" value="FK" style="shape=partialRectangle;connectable=0;fillColor=none;top=0;left=0;bottom=0;right=0;editable=1;overflow=hidden;whiteSpace=wrap;html=1;" vertex="1" parent="63VN-XcSVFZszBxkWOSX-420">
          <mxGeometry width="30" height="30" as="geometry">
            <mxRectangle width="30" height="30" as="alternateBounds" />
          </mxGeometry>
        </mxCell>
        <mxCell id="63VN-XcSVFZszBxkWOSX-422" value="Сотрудник" style="shape=partialRectangle;connectable=0;fillColor=none;top=0;left=0;bottom=0;right=0;align=left;spacingLeft=6;overflow=hidden;whiteSpace=wrap;html=1;" vertex="1" parent="63VN-XcSVFZszBxkWOSX-420">
          <mxGeometry x="30" width="150" height="30" as="geometry">
            <mxRectangle width="150" height="30" as="alternateBounds" />
          </mxGeometry>
        </mxCell>
        <mxCell id="63VN-XcSVFZszBxkWOSX-423" value="" style="shape=tableRow;horizontal=0;startSize=0;swimlaneHead=0;swimlaneBody=0;fillColor=none;collapsible=0;dropTarget=0;points=[[0,0.5],[1,0.5]];portConstraint=eastwest;top=0;left=0;right=0;bottom=0;" vertex="1" parent="63VN-XcSVFZszBxkWOSX-413">
          <mxGeometry y="120" width="180" height="30" as="geometry" />
        </mxCell>
        <mxCell id="63VN-XcSVFZszBxkWOSX-424" value="FK" style="shape=partialRectangle;connectable=0;fillColor=none;top=0;left=0;bottom=0;right=0;editable=1;overflow=hidden;whiteSpace=wrap;html=1;" vertex="1" parent="63VN-XcSVFZszBxkWOSX-423">
          <mxGeometry width="30" height="30" as="geometry">
            <mxRectangle width="30" height="30" as="alternateBounds" />
          </mxGeometry>
        </mxCell>
        <mxCell id="63VN-XcSVFZszBxkWOSX-425" value="СтатусЗаказа" style="shape=partialRectangle;connectable=0;fillColor=none;top=0;left=0;bottom=0;right=0;align=left;spacingLeft=6;overflow=hidden;whiteSpace=wrap;html=1;" vertex="1" parent="63VN-XcSVFZszBxkWOSX-423">
          <mxGeometry x="30" width="150" height="30" as="geometry">
            <mxRectangle width="150" height="30" as="alternateBounds" />
          </mxGeometry>
        </mxCell>
        <mxCell id="63VN-XcSVFZszBxkWOSX-426" value="" style="shape=tableRow;horizontal=0;startSize=0;swimlaneHead=0;swimlaneBody=0;fillColor=none;collapsible=0;dropTarget=0;points=[[0,0.5],[1,0.5]];portConstraint=eastwest;top=0;left=0;right=0;bottom=0;" vertex="1" parent="63VN-XcSVFZszBxkWOSX-413">
          <mxGeometry y="150" width="180" height="30" as="geometry" />
        </mxCell>
        <mxCell id="63VN-XcSVFZszBxkWOSX-427" value="" style="shape=partialRectangle;connectable=0;fillColor=none;top=0;left=0;bottom=0;right=0;editable=1;overflow=hidden;" vertex="1" parent="63VN-XcSVFZszBxkWOSX-426">
          <mxGeometry width="30" height="30" as="geometry">
            <mxRectangle width="30" height="30" as="alternateBounds" />
          </mxGeometry>
        </mxCell>
        <mxCell id="63VN-XcSVFZszBxkWOSX-428" value="ОбщаяСумма" style="shape=partialRectangle;connectable=0;fillColor=none;top=0;left=0;bottom=0;right=0;align=left;spacingLeft=6;overflow=hidden;" vertex="1" parent="63VN-XcSVFZszBxkWOSX-426">
          <mxGeometry x="30" width="150" height="30" as="geometry">
            <mxRectangle width="150" height="30" as="alternateBounds" />
          </mxGeometry>
        </mxCell>
        <mxCell id="63VN-XcSVFZszBxkWOSX-429" value="" style="shape=tableRow;horizontal=0;startSize=0;swimlaneHead=0;swimlaneBody=0;fillColor=none;collapsible=0;dropTarget=0;points=[[0,0.5],[1,0.5]];portConstraint=eastwest;top=0;left=0;right=0;bottom=0;" vertex="1" parent="63VN-XcSVFZszBxkWOSX-413">
          <mxGeometry y="180" width="180" height="30" as="geometry" />
        </mxCell>
        <mxCell id="63VN-XcSVFZszBxkWOSX-430" value="FK" style="shape=partialRectangle;connectable=0;fillColor=none;top=0;left=0;bottom=0;right=0;editable=1;overflow=hidden;" vertex="1" parent="63VN-XcSVFZszBxkWOSX-429">
          <mxGeometry width="30" height="30" as="geometry">
            <mxRectangle width="30" height="30" as="alternateBounds" />
          </mxGeometry>
        </mxCell>
        <mxCell id="63VN-XcSVFZszBxkWOSX-431" value="Поставщик" style="shape=partialRectangle;connectable=0;fillColor=none;top=0;left=0;bottom=0;right=0;align=left;spacingLeft=6;overflow=hidden;" vertex="1" parent="63VN-XcSVFZszBxkWOSX-429">
          <mxGeometry x="30" width="150" height="30" as="geometry">
            <mxRectangle width="150" height="30" as="alternateBounds" />
          </mxGeometry>
        </mxCell>
        <mxCell id="63VN-XcSVFZszBxkWOSX-432" value="" style="shape=tableRow;horizontal=0;startSize=0;swimlaneHead=0;swimlaneBody=0;fillColor=#fff2cc;collapsible=0;dropTarget=0;points=[[0,0.5],[1,0.5]];portConstraint=eastwest;top=0;left=0;right=0;bottom=0;strokeColor=#d6b656;" vertex="1" parent="63VN-XcSVFZszBxkWOSX-413">
          <mxGeometry y="210" width="180" height="30" as="geometry" />
        </mxCell>
        <mxCell id="63VN-XcSVFZszBxkWOSX-433" value="" style="shape=partialRectangle;connectable=0;fillColor=none;top=0;left=0;bottom=0;right=0;editable=1;overflow=hidden;" vertex="1" parent="63VN-XcSVFZszBxkWOSX-432">
          <mxGeometry width="30" height="30" as="geometry">
            <mxRectangle width="30" height="30" as="alternateBounds" />
          </mxGeometry>
        </mxCell>
        <mxCell id="63VN-XcSVFZszBxkWOSX-434" value="ТабличнаяЧасть" style="shape=partialRectangle;connectable=0;fillColor=none;top=0;left=0;bottom=0;right=0;align=left;spacingLeft=6;overflow=hidden;" vertex="1" parent="63VN-XcSVFZszBxkWOSX-432">
          <mxGeometry x="30" width="150" height="30" as="geometry">
            <mxRectangle width="150" height="30" as="alternateBounds" />
          </mxGeometry>
        </mxCell>
        <mxCell id="63VN-XcSVFZszBxkWOSX-435" value="" style="shape=tableRow;horizontal=0;startSize=0;swimlaneHead=0;swimlaneBody=0;fillColor=none;collapsible=0;dropTarget=0;points=[[0,0.5],[1,0.5]];portConstraint=eastwest;top=0;left=0;right=0;bottom=0;" vertex="1" parent="63VN-XcSVFZszBxkWOSX-413">
          <mxGeometry y="240" width="180" height="30" as="geometry" />
        </mxCell>
        <mxCell id="63VN-XcSVFZszBxkWOSX-436" value="FK" style="shape=partialRectangle;connectable=0;fillColor=none;top=0;left=0;bottom=0;right=0;editable=1;overflow=hidden;" vertex="1" parent="63VN-XcSVFZszBxkWOSX-435">
          <mxGeometry width="30" height="30" as="geometry">
            <mxRectangle width="30" height="30" as="alternateBounds" />
          </mxGeometry>
        </mxCell>
        <mxCell id="63VN-XcSVFZszBxkWOSX-437" value="Комплектующие" style="shape=partialRectangle;connectable=0;fillColor=none;top=0;left=0;bottom=0;right=0;align=left;spacingLeft=6;overflow=hidden;" vertex="1" parent="63VN-XcSVFZszBxkWOSX-435">
          <mxGeometry x="30" width="150" height="30" as="geometry">
            <mxRectangle width="150" height="30" as="alternateBounds" />
          </mxGeometry>
        </mxCell>
        <mxCell id="63VN-XcSVFZszBxkWOSX-438" value="" style="shape=tableRow;horizontal=0;startSize=0;swimlaneHead=0;swimlaneBody=0;fillColor=none;collapsible=0;dropTarget=0;points=[[0,0.5],[1,0.5]];portConstraint=eastwest;top=0;left=0;right=0;bottom=0;" vertex="1" parent="63VN-XcSVFZszBxkWOSX-413">
          <mxGeometry y="270" width="180" height="30" as="geometry" />
        </mxCell>
        <mxCell id="63VN-XcSVFZszBxkWOSX-439" value="" style="shape=partialRectangle;connectable=0;fillColor=none;top=0;left=0;bottom=0;right=0;editable=1;overflow=hidden;" vertex="1" parent="63VN-XcSVFZszBxkWOSX-438">
          <mxGeometry width="30" height="30" as="geometry">
            <mxRectangle width="30" height="30" as="alternateBounds" />
          </mxGeometry>
        </mxCell>
        <mxCell id="63VN-XcSVFZszBxkWOSX-440" value="Количество" style="shape=partialRectangle;connectable=0;fillColor=none;top=0;left=0;bottom=0;right=0;align=left;spacingLeft=6;overflow=hidden;" vertex="1" parent="63VN-XcSVFZszBxkWOSX-438">
          <mxGeometry x="30" width="150" height="30" as="geometry">
            <mxRectangle width="150" height="30" as="alternateBounds" />
          </mxGeometry>
        </mxCell>
        <mxCell id="63VN-XcSVFZszBxkWOSX-441" value="" style="shape=tableRow;horizontal=0;startSize=0;swimlaneHead=0;swimlaneBody=0;fillColor=none;collapsible=0;dropTarget=0;points=[[0,0.5],[1,0.5]];portConstraint=eastwest;top=0;left=0;right=0;bottom=0;" vertex="1" parent="63VN-XcSVFZszBxkWOSX-413">
          <mxGeometry y="300" width="180" height="30" as="geometry" />
        </mxCell>
        <mxCell id="63VN-XcSVFZszBxkWOSX-442" value="" style="shape=partialRectangle;connectable=0;fillColor=none;top=0;left=0;bottom=0;right=0;editable=1;overflow=hidden;" vertex="1" parent="63VN-XcSVFZszBxkWOSX-441">
          <mxGeometry width="30" height="30" as="geometry">
            <mxRectangle width="30" height="30" as="alternateBounds" />
          </mxGeometry>
        </mxCell>
        <mxCell id="63VN-XcSVFZszBxkWOSX-443" value="Цена" style="shape=partialRectangle;connectable=0;fillColor=none;top=0;left=0;bottom=0;right=0;align=left;spacingLeft=6;overflow=hidden;" vertex="1" parent="63VN-XcSVFZszBxkWOSX-441">
          <mxGeometry x="30" width="150" height="30" as="geometry">
            <mxRectangle width="150" height="30" as="alternateBounds" />
          </mxGeometry>
        </mxCell>
        <mxCell id="63VN-XcSVFZszBxkWOSX-444" value="" style="shape=tableRow;horizontal=0;startSize=0;swimlaneHead=0;swimlaneBody=0;fillColor=none;collapsible=0;dropTarget=0;points=[[0,0.5],[1,0.5]];portConstraint=eastwest;top=0;left=0;right=0;bottom=0;" vertex="1" parent="63VN-XcSVFZszBxkWOSX-413">
          <mxGeometry y="330" width="180" height="30" as="geometry" />
        </mxCell>
        <mxCell id="63VN-XcSVFZszBxkWOSX-445" value="" style="shape=partialRectangle;connectable=0;fillColor=none;top=0;left=0;bottom=0;right=0;editable=1;overflow=hidden;" vertex="1" parent="63VN-XcSVFZszBxkWOSX-444">
          <mxGeometry width="30" height="30" as="geometry">
            <mxRectangle width="30" height="30" as="alternateBounds" />
          </mxGeometry>
        </mxCell>
        <mxCell id="63VN-XcSVFZszBxkWOSX-446" value="Сумма" style="shape=partialRectangle;connectable=0;fillColor=none;top=0;left=0;bottom=0;right=0;align=left;spacingLeft=6;overflow=hidden;" vertex="1" parent="63VN-XcSVFZszBxkWOSX-444">
          <mxGeometry x="30" width="150" height="30" as="geometry">
            <mxRectangle width="150" height="30" as="alternateBounds" />
          </mxGeometry>
        </mxCell>
        <mxCell id="63VN-XcSVFZszBxkWOSX-447" value="" style="edgeStyle=orthogonalEdgeStyle;fontSize=12;html=1;endArrow=ERoneToMany;rounded=0;exitX=1;exitY=0.5;exitDx=0;exitDy=0;entryX=0;entryY=0.5;entryDx=0;entryDy=0;" edge="1" parent="1" source="63VN-XcSVFZszBxkWOSX-354" target="63VN-XcSVFZszBxkWOSX-435">
          <mxGeometry width="100" height="100" relative="1" as="geometry">
            <mxPoint x="2500" y="870" as="sourcePoint" />
            <mxPoint x="2580" y="790" as="targetPoint" />
          </mxGeometry>
        </mxCell>
        <mxCell id="63VN-XcSVFZszBxkWOSX-449" value="РегистрЦенПоКомплектующим" style="shape=table;startSize=30;container=1;collapsible=1;childLayout=tableLayout;fixedRows=1;rowLines=0;fontStyle=1;align=center;resizeLast=1;html=1;" vertex="1" parent="1">
          <mxGeometry x="2800" y="850" width="220" height="150" as="geometry" />
        </mxCell>
        <mxCell id="63VN-XcSVFZszBxkWOSX-450" value="" style="shape=tableRow;horizontal=0;startSize=0;swimlaneHead=0;swimlaneBody=0;fillColor=none;collapsible=0;dropTarget=0;points=[[0,0.5],[1,0.5]];portConstraint=eastwest;top=0;left=0;right=0;bottom=1;" vertex="1" parent="63VN-XcSVFZszBxkWOSX-449">
          <mxGeometry y="30" width="220" height="30" as="geometry" />
        </mxCell>
        <mxCell id="63VN-XcSVFZszBxkWOSX-451" value="PK" style="shape=partialRectangle;connectable=0;fillColor=none;top=0;left=0;bottom=0;right=0;fontStyle=1;overflow=hidden;whiteSpace=wrap;html=1;" vertex="1" parent="63VN-XcSVFZszBxkWOSX-450">
          <mxGeometry width="30" height="30" as="geometry">
            <mxRectangle width="30" height="30" as="alternateBounds" />
          </mxGeometry>
        </mxCell>
        <mxCell id="63VN-XcSVFZszBxkWOSX-452" value="Ссылка" style="shape=partialRectangle;connectable=0;fillColor=none;top=0;left=0;bottom=0;right=0;align=left;spacingLeft=6;fontStyle=5;overflow=hidden;whiteSpace=wrap;html=1;" vertex="1" parent="63VN-XcSVFZszBxkWOSX-450">
          <mxGeometry x="30" width="190" height="30" as="geometry">
            <mxRectangle width="190" height="30" as="alternateBounds" />
          </mxGeometry>
        </mxCell>
        <mxCell id="63VN-XcSVFZszBxkWOSX-453" value="" style="shape=tableRow;horizontal=0;startSize=0;swimlaneHead=0;swimlaneBody=0;fillColor=none;collapsible=0;dropTarget=0;points=[[0,0.5],[1,0.5]];portConstraint=eastwest;top=0;left=0;right=0;bottom=0;" vertex="1" parent="63VN-XcSVFZszBxkWOSX-449">
          <mxGeometry y="60" width="220" height="30" as="geometry" />
        </mxCell>
        <mxCell id="63VN-XcSVFZszBxkWOSX-454" value="FK" style="shape=partialRectangle;connectable=0;fillColor=none;top=0;left=0;bottom=0;right=0;editable=1;overflow=hidden;whiteSpace=wrap;html=1;" vertex="1" parent="63VN-XcSVFZszBxkWOSX-453">
          <mxGeometry width="30" height="30" as="geometry">
            <mxRectangle width="30" height="30" as="alternateBounds" />
          </mxGeometry>
        </mxCell>
        <mxCell id="63VN-XcSVFZszBxkWOSX-455" value="Комплектующие" style="shape=partialRectangle;connectable=0;fillColor=none;top=0;left=0;bottom=0;right=0;align=left;spacingLeft=6;overflow=hidden;whiteSpace=wrap;html=1;" vertex="1" parent="63VN-XcSVFZszBxkWOSX-453">
          <mxGeometry x="30" width="190" height="30" as="geometry">
            <mxRectangle width="190" height="30" as="alternateBounds" />
          </mxGeometry>
        </mxCell>
        <mxCell id="63VN-XcSVFZszBxkWOSX-456" value="" style="shape=tableRow;horizontal=0;startSize=0;swimlaneHead=0;swimlaneBody=0;fillColor=none;collapsible=0;dropTarget=0;points=[[0,0.5],[1,0.5]];portConstraint=eastwest;top=0;left=0;right=0;bottom=0;" vertex="1" parent="63VN-XcSVFZszBxkWOSX-449">
          <mxGeometry y="90" width="220" height="30" as="geometry" />
        </mxCell>
        <mxCell id="63VN-XcSVFZszBxkWOSX-457" value="FK" style="shape=partialRectangle;connectable=0;fillColor=none;top=0;left=0;bottom=0;right=0;editable=1;overflow=hidden;whiteSpace=wrap;html=1;" vertex="1" parent="63VN-XcSVFZszBxkWOSX-456">
          <mxGeometry width="30" height="30" as="geometry">
            <mxRectangle width="30" height="30" as="alternateBounds" />
          </mxGeometry>
        </mxCell>
        <mxCell id="63VN-XcSVFZszBxkWOSX-458" value="Поставщик" style="shape=partialRectangle;connectable=0;fillColor=none;top=0;left=0;bottom=0;right=0;align=left;spacingLeft=6;overflow=hidden;whiteSpace=wrap;html=1;" vertex="1" parent="63VN-XcSVFZszBxkWOSX-456">
          <mxGeometry x="30" width="190" height="30" as="geometry">
            <mxRectangle width="190" height="30" as="alternateBounds" />
          </mxGeometry>
        </mxCell>
        <mxCell id="63VN-XcSVFZszBxkWOSX-459" value="" style="shape=tableRow;horizontal=0;startSize=0;swimlaneHead=0;swimlaneBody=0;fillColor=none;collapsible=0;dropTarget=0;points=[[0,0.5],[1,0.5]];portConstraint=eastwest;top=0;left=0;right=0;bottom=0;" vertex="1" parent="63VN-XcSVFZszBxkWOSX-449">
          <mxGeometry y="120" width="220" height="30" as="geometry" />
        </mxCell>
        <mxCell id="63VN-XcSVFZszBxkWOSX-460" value="" style="shape=partialRectangle;connectable=0;fillColor=none;top=0;left=0;bottom=0;right=0;editable=1;overflow=hidden;whiteSpace=wrap;html=1;" vertex="1" parent="63VN-XcSVFZszBxkWOSX-459">
          <mxGeometry width="30" height="30" as="geometry">
            <mxRectangle width="30" height="30" as="alternateBounds" />
          </mxGeometry>
        </mxCell>
        <mxCell id="63VN-XcSVFZszBxkWOSX-461" value="Цена" style="shape=partialRectangle;connectable=0;fillColor=none;top=0;left=0;bottom=0;right=0;align=left;spacingLeft=6;overflow=hidden;whiteSpace=wrap;html=1;" vertex="1" parent="63VN-XcSVFZszBxkWOSX-459">
          <mxGeometry x="30" width="190" height="30" as="geometry">
            <mxRectangle width="190" height="30" as="alternateBounds" />
          </mxGeometry>
        </mxCell>
        <mxCell id="63VN-XcSVFZszBxkWOSX-475" value="Поставщики" style="shape=table;startSize=30;container=1;collapsible=1;childLayout=tableLayout;fixedRows=1;rowLines=0;fontStyle=1;align=center;resizeLast=1;html=1;" vertex="1" parent="1">
          <mxGeometry x="2990" y="480" width="180" height="150" as="geometry" />
        </mxCell>
        <mxCell id="63VN-XcSVFZszBxkWOSX-476" value="" style="shape=tableRow;horizontal=0;startSize=0;swimlaneHead=0;swimlaneBody=0;fillColor=none;collapsible=0;dropTarget=0;points=[[0,0.5],[1,0.5]];portConstraint=eastwest;top=0;left=0;right=0;bottom=1;" vertex="1" parent="63VN-XcSVFZszBxkWOSX-475">
          <mxGeometry y="30" width="180" height="30" as="geometry" />
        </mxCell>
        <mxCell id="63VN-XcSVFZszBxkWOSX-477" value="PK" style="shape=partialRectangle;connectable=0;fillColor=none;top=0;left=0;bottom=0;right=0;fontStyle=1;overflow=hidden;whiteSpace=wrap;html=1;" vertex="1" parent="63VN-XcSVFZszBxkWOSX-476">
          <mxGeometry width="30" height="30" as="geometry">
            <mxRectangle width="30" height="30" as="alternateBounds" />
          </mxGeometry>
        </mxCell>
        <mxCell id="63VN-XcSVFZszBxkWOSX-478" value="Код" style="shape=partialRectangle;connectable=0;fillColor=none;top=0;left=0;bottom=0;right=0;align=left;spacingLeft=6;fontStyle=5;overflow=hidden;whiteSpace=wrap;html=1;" vertex="1" parent="63VN-XcSVFZszBxkWOSX-476">
          <mxGeometry x="30" width="150" height="30" as="geometry">
            <mxRectangle width="150" height="30" as="alternateBounds" />
          </mxGeometry>
        </mxCell>
        <mxCell id="63VN-XcSVFZszBxkWOSX-479" value="" style="shape=tableRow;horizontal=0;startSize=0;swimlaneHead=0;swimlaneBody=0;fillColor=none;collapsible=0;dropTarget=0;points=[[0,0.5],[1,0.5]];portConstraint=eastwest;top=0;left=0;right=0;bottom=0;" vertex="1" parent="63VN-XcSVFZszBxkWOSX-475">
          <mxGeometry y="60" width="180" height="30" as="geometry" />
        </mxCell>
        <mxCell id="63VN-XcSVFZszBxkWOSX-480" value="" style="shape=partialRectangle;connectable=0;fillColor=none;top=0;left=0;bottom=0;right=0;editable=1;overflow=hidden;whiteSpace=wrap;html=1;" vertex="1" parent="63VN-XcSVFZszBxkWOSX-479">
          <mxGeometry width="30" height="30" as="geometry">
            <mxRectangle width="30" height="30" as="alternateBounds" />
          </mxGeometry>
        </mxCell>
        <mxCell id="63VN-XcSVFZszBxkWOSX-481" value="Телефон" style="shape=partialRectangle;connectable=0;fillColor=none;top=0;left=0;bottom=0;right=0;align=left;spacingLeft=6;overflow=hidden;whiteSpace=wrap;html=1;" vertex="1" parent="63VN-XcSVFZszBxkWOSX-479">
          <mxGeometry x="30" width="150" height="30" as="geometry">
            <mxRectangle width="150" height="30" as="alternateBounds" />
          </mxGeometry>
        </mxCell>
        <mxCell id="63VN-XcSVFZszBxkWOSX-482" value="" style="shape=tableRow;horizontal=0;startSize=0;swimlaneHead=0;swimlaneBody=0;fillColor=none;collapsible=0;dropTarget=0;points=[[0,0.5],[1,0.5]];portConstraint=eastwest;top=0;left=0;right=0;bottom=0;" vertex="1" parent="63VN-XcSVFZszBxkWOSX-475">
          <mxGeometry y="90" width="180" height="30" as="geometry" />
        </mxCell>
        <mxCell id="63VN-XcSVFZszBxkWOSX-483" value="" style="shape=partialRectangle;connectable=0;fillColor=none;top=0;left=0;bottom=0;right=0;editable=1;overflow=hidden;whiteSpace=wrap;html=1;" vertex="1" parent="63VN-XcSVFZszBxkWOSX-482">
          <mxGeometry width="30" height="30" as="geometry">
            <mxRectangle width="30" height="30" as="alternateBounds" />
          </mxGeometry>
        </mxCell>
        <mxCell id="63VN-XcSVFZszBxkWOSX-484" value="Адрес" style="shape=partialRectangle;connectable=0;fillColor=none;top=0;left=0;bottom=0;right=0;align=left;spacingLeft=6;overflow=hidden;whiteSpace=wrap;html=1;" vertex="1" parent="63VN-XcSVFZszBxkWOSX-482">
          <mxGeometry x="30" width="150" height="30" as="geometry">
            <mxRectangle width="150" height="30" as="alternateBounds" />
          </mxGeometry>
        </mxCell>
        <mxCell id="63VN-XcSVFZszBxkWOSX-485" value="" style="shape=tableRow;horizontal=0;startSize=0;swimlaneHead=0;swimlaneBody=0;fillColor=none;collapsible=0;dropTarget=0;points=[[0,0.5],[1,0.5]];portConstraint=eastwest;top=0;left=0;right=0;bottom=0;" vertex="1" parent="63VN-XcSVFZszBxkWOSX-475">
          <mxGeometry y="120" width="180" height="30" as="geometry" />
        </mxCell>
        <mxCell id="63VN-XcSVFZszBxkWOSX-486" value="" style="shape=partialRectangle;connectable=0;fillColor=none;top=0;left=0;bottom=0;right=0;editable=1;overflow=hidden;whiteSpace=wrap;html=1;" vertex="1" parent="63VN-XcSVFZszBxkWOSX-485">
          <mxGeometry width="30" height="30" as="geometry">
            <mxRectangle width="30" height="30" as="alternateBounds" />
          </mxGeometry>
        </mxCell>
        <mxCell id="63VN-XcSVFZszBxkWOSX-487" value="ИНН" style="shape=partialRectangle;connectable=0;fillColor=none;top=0;left=0;bottom=0;right=0;align=left;spacingLeft=6;overflow=hidden;whiteSpace=wrap;html=1;" vertex="1" parent="63VN-XcSVFZszBxkWOSX-485">
          <mxGeometry x="30" width="150" height="30" as="geometry">
            <mxRectangle width="150" height="30" as="alternateBounds" />
          </mxGeometry>
        </mxCell>
        <mxCell id="63VN-XcSVFZszBxkWOSX-489" value="" style="edgeStyle=orthogonalEdgeStyle;fontSize=12;html=1;endArrow=ERoneToMany;rounded=0;exitX=0;exitY=0.5;exitDx=0;exitDy=0;entryX=1;entryY=0.5;entryDx=0;entryDy=0;" edge="1" parent="1" source="63VN-XcSVFZszBxkWOSX-476" target="63VN-XcSVFZszBxkWOSX-429">
          <mxGeometry width="100" height="100" relative="1" as="geometry">
            <mxPoint x="2920" y="570" as="sourcePoint" />
            <mxPoint x="3020" y="470" as="targetPoint" />
          </mxGeometry>
        </mxCell>
        <mxCell id="63VN-XcSVFZszBxkWOSX-491" value="" style="edgeStyle=orthogonalEdgeStyle;fontSize=12;html=1;endArrow=ERoneToMany;rounded=0;exitX=0;exitY=0.5;exitDx=0;exitDy=0;entryX=1;entryY=0.5;entryDx=0;entryDy=0;" edge="1" parent="1" source="63VN-XcSVFZszBxkWOSX-476" target="63VN-XcSVFZszBxkWOSX-456">
          <mxGeometry width="100" height="100" relative="1" as="geometry">
            <mxPoint x="2810" y="840" as="sourcePoint" />
            <mxPoint x="2910" y="740" as="targetPoint" />
          </mxGeometry>
        </mxCell>
        <mxCell id="63VN-XcSVFZszBxkWOSX-493" value="" style="edgeStyle=orthogonalEdgeStyle;fontSize=12;html=1;endArrow=ERoneToMany;rounded=0;exitX=1;exitY=0.5;exitDx=0;exitDy=0;entryX=0;entryY=0.5;entryDx=0;entryDy=0;" edge="1" parent="1" source="63VN-XcSVFZszBxkWOSX-354" target="63VN-XcSVFZszBxkWOSX-453">
          <mxGeometry width="100" height="100" relative="1" as="geometry">
            <mxPoint x="2620" y="1020" as="sourcePoint" />
            <mxPoint x="2720" y="920" as="targetPoint" />
          </mxGeometry>
        </mxCell>
      </root>
    </mxGraphModel>
  </diagram>
</mxfile>
